<?xml version="1.0" encoding="UTF-8" standalone="no"?>
<svg
   xmlns:dc="http://purl.org/dc/elements/1.1/"
   xmlns:cc="http://creativecommons.org/ns#"
   xmlns:rdf="http://www.w3.org/1999/02/22-rdf-syntax-ns#"
   xmlns:svg="http://www.w3.org/2000/svg"
   xmlns="http://www.w3.org/2000/svg"
   xmlns:sodipodi="http://sodipodi.sourceforge.net/DTD/sodipodi-0.dtd"
   xmlns:inkscape="http://www.inkscape.org/namespaces/inkscape"
   version="1.1"
   id="svg2"
   xml:space="preserve"
   width="666.66669"
   height="666.66669"
   viewBox="0 0 666.66669 666.66669"
   sodipodi:docname="4197036.ai"><metadata
     id="metadata8"><rdf:RDF><cc:Work
         rdf:about=""><dc:format>image/svg+xml</dc:format><dc:type
           rdf:resource="http://purl.org/dc/dcmitype/StillImage" /></cc:Work></rdf:RDF></metadata><defs
     id="defs6"><clipPath
       clipPathUnits="userSpaceOnUse"
       id="clipPath18"><path
         d="M 0,500 H 500 V 0 H 0 Z"
         id="path16" /></clipPath><clipPath
       clipPathUnits="userSpaceOnUse"
       id="clipPath30"><path
         d="M 48.4027,421.04 H 457.239 V 105.135 H 48.4027 Z"
         id="path28" /></clipPath><clipPath
       clipPathUnits="userSpaceOnUse"
       id="clipPath50"><path
         d="M 0,500 H 500 V 0 H 0 Z"
         id="path48" /></clipPath><clipPath
       clipPathUnits="userSpaceOnUse"
       id="clipPath70"><path
         d="m 130.104,227.759 h 54.479 v -53.717 h -54.479 z"
         id="path68" /></clipPath><clipPath
       clipPathUnits="userSpaceOnUse"
       id="clipPath94"><path
         d="M 30.9754,256.407 H 112.241 V 176.555 H 30.9754 Z"
         id="path92" /></clipPath><clipPath
       clipPathUnits="userSpaceOnUse"
       id="clipPath122"><path
         d="M 0,500 H 500 V 0 H 0 Z"
         id="path120" /></clipPath><clipPath
       clipPathUnits="userSpaceOnUse"
       id="clipPath314"><path
         d="m 244.206,317.327 c -4.568,1.203 -5.839,-4.16 -5.839,-4.16 v 0 c -2.531,1.917 -5.47,-6.186 -5.47,-6.186 v 0 c -7.4,-9.444 -13.221,-25.346 -15.157,-31.019 v 0 c -0.424,-1.241 -1.216,-2.314 -2.259,-3.11 v 0 c -5.251,-4.003 -2.333,-8.952 -2.333,-8.952 v 0 l 10.749,-3.294 c 0,0 5.21,-1.356 9.189,5.493 v 0 c 3.328,5.73 8.767,15.443 9.704,11.952 v 0 c 0.465,-1.766 0.941,-3.514 1.416,-5.223 v 0 c 5,-18 11.499,-52.251 11.499,-52.251 v 0 c 32,-6.75 65.75,0 65.75,0 v 0 c 0.183,7.467 -0.725,17.316 -1.738,27.66 v 0 c 5.248,1.452 9.032,6.296 9.238,14.341 v 0 c 0.25,9.749 -1.516,27.304 -2.5,35.499 v 0 c -0.866,7.213 -0.25,11.5 -11.42,16.965 v 0 c -5.598,3.232 -14.893,4.76 -26.33,6.286 v 0 c -5.256,0.701 -10.171,0.99 -14.689,0.99 v 0 c -14.826,0 -25.393,-3.11 -29.81,-4.991"
         id="path312" /></clipPath><clipPath
       clipPathUnits="userSpaceOnUse"
       id="clipPath322"><path
         d="m 220.163,285.465 h 22.756 v -27.278 h -22.756 z"
         id="path320" /></clipPath><clipPath
       clipPathUnits="userSpaceOnUse"
       id="clipPath338"><path
         d="M 0,500 H 500 V 0 H 0 Z"
         id="path336" /></clipPath><clipPath
       clipPathUnits="userSpaceOnUse"
       id="clipPath350"><path
         d="m 250.798,244.935 h 70.681 v -27.358 h -70.681 z"
         id="path348" /></clipPath><clipPath
       clipPathUnits="userSpaceOnUse"
       id="clipPath366"><path
         d="m 289.682,297.077 h 18.356 v -31.951 h -18.356 z"
         id="path364" /></clipPath><clipPath
       clipPathUnits="userSpaceOnUse"
       id="clipPath458"><path
         d="m 260.205,321.376 c -4.166,-11.618 0,-20.963 0,-20.963 v 0 c 0,0 5.834,2.414 6.834,0 v 0 c 1,-2.414 2.833,-7.585 2.833,-7.585 v 0 c 0,0 4,1.999 7.167,6.166 v 0 c 3.166,4.167 10.615,0 10.615,0 v 0 c 4.779,8.333 2.614,22.122 2.614,22.122 v 0 c -0.939,3.29 -5.229,4.211 -5.229,4.211 v 0 c -3.898,0.666 -7.213,0.936 -10.023,0.936 v 0 c -11.971,0 -14.811,-4.887 -14.811,-4.887 m 2.667,-13.154 c -2.541,4.595 -1.68,10.42 -1.242,12.544 v 0 c 0.106,0.516 0.434,0.963 0.904,1.203 v 0 c 7.876,4.01 17.514,2.534 21.49,1.657 v 0 c 1.01,-0.224 1.601,-1.277 1.287,-2.263 v 0 c -7.939,-24.922 -14.939,-26.035 -14.939,-26.035 v 0 c -2.333,9.166 -4.333,7.167 -7.5,12.894"
         id="path456" /></clipPath><clipPath
       clipPathUnits="userSpaceOnUse"
       id="clipPath466"><path
         d="m 258.353,326.263 h 32.404 v -33.435 h -32.404 z"
         id="path464" /></clipPath><clipPath
       clipPathUnits="userSpaceOnUse"
       id="clipPath482"><path
         d="M 0,500 H 500 V 0 H 0 Z"
         id="path480" /></clipPath><clipPath
       clipPathUnits="userSpaceOnUse"
       id="clipPath590"><path
         d="m 283.454,255.288 h 37.353 v -7.557 h -37.353 z"
         id="path588" /></clipPath><clipPath
       clipPathUnits="userSpaceOnUse"
       id="clipPath626"><path
         d="M 0,500 H 500 V 0 H 0 Z"
         id="path624" /></clipPath><clipPath
       clipPathUnits="userSpaceOnUse"
       id="clipPath698"><path
         d="m 134.086,374.653 c 0,-13.739 11.138,-24.877 24.877,-24.877 v 0 c 13.74,0 24.878,11.138 24.878,24.877 v 0 c 0,13.74 -11.138,24.878 -24.878,24.878 v 0 c -13.739,0 -24.877,-11.138 -24.877,-24.878"
         id="path696" /></clipPath><clipPath
       clipPathUnits="userSpaceOnUse"
       id="clipPath706"><path
         d="m 134.086,399.531 h 49.755 v -49.755 h -49.755 z"
         id="path704" /></clipPath><clipPath
       clipPathUnits="userSpaceOnUse"
       id="clipPath722"><path
         d="M 0,500 H 500 V 0 H 0 Z"
         id="path720" /></clipPath><clipPath
       clipPathUnits="userSpaceOnUse"
       id="clipPath786"><path
         d="m 314.227,380.282 c 0,-11.727 9.507,-21.233 21.234,-21.233 v 0 c 11.727,0 21.233,9.506 21.233,21.233 v 0 c 0,11.727 -9.506,21.235 -21.233,21.235 v 0 c -11.727,0 -21.234,-9.508 -21.234,-21.235"
         id="path784" /></clipPath><clipPath
       clipPathUnits="userSpaceOnUse"
       id="clipPath794"><path
         d="m 314.226,401.517 h 42.469 v -42.469 h -42.469 z"
         id="path792" /></clipPath><clipPath
       clipPathUnits="userSpaceOnUse"
       id="clipPath810"><path
         d="M 0,500 H 500 V 0 H 0 Z"
         id="path808" /></clipPath><clipPath
       clipPathUnits="userSpaceOnUse"
       id="clipPath882"><path
         d="m 370.418,335.373 c 0,-11.697 9.481,-21.179 21.178,-21.179 v 0 c 11.698,0 21.179,9.482 21.179,21.179 v 0 c 0,11.698 -9.481,21.179 -21.179,21.179 v 0 c -11.697,0 -21.178,-9.481 -21.178,-21.179"
         id="path880" /></clipPath><clipPath
       clipPathUnits="userSpaceOnUse"
       id="clipPath890"><path
         d="m 370.418,356.552 h 42.358 v -42.358 h -42.358 z"
         id="path888" /></clipPath><clipPath
       clipPathUnits="userSpaceOnUse"
       id="clipPath906"><path
         d="M 0,500 H 500 V 0 H 0 Z"
         id="path904" /></clipPath><clipPath
       clipPathUnits="userSpaceOnUse"
       id="clipPath958"><path
         d="m 364.522,223.885 h 29.427 v 14.864 h -29.427 z"
         id="path956" /></clipPath><clipPath
       clipPathUnits="userSpaceOnUse"
       id="clipPath966"><path
         d="m 364.522,238.749 h 29.427 v -14.864 h -29.427 z"
         id="path964" /></clipPath><clipPath
       clipPathUnits="userSpaceOnUse"
       id="clipPath1030"><path
         d="M 0,500 H 500 V 0 H 0 Z"
         id="path1028" /></clipPath></defs><sodipodi:namedview
     pagecolor="#ffffff"
     bordercolor="#666666"
     borderopacity="1"
     objecttolerance="10"
     gridtolerance="10"
     guidetolerance="10"
     inkscape:pageopacity="0"
     inkscape:pageshadow="2"
     inkscape:window-width="640"
     inkscape:window-height="480"
     id="namedview4" /><g
     id="g10"
     inkscape:groupmode="layer"
     inkscape:label="4197036"
     transform="matrix(1.3333333,0,0,-1.3333333,0,666.66667)"><g
       id="g12"><g
         id="g14"
         clip-path="url(#clipPath18)"><g
           id="g20"
           transform="translate(187.0405,177.8818)"><path
             d="m 0,0 c -47.669,14.689 -156.807,49.179 -136.041,145.954 24,111.845 156.216,36.028 237.333,73.845 57.413,26.765 177.245,54.963 168.447,-65.865 C 261.18,36.383 256.266,-48.796 186.613,-68.999 116.959,-89.201 72.044,-22.201 0,0"
             style="fill:#5ae4a7;fill-opacity:1;fill-rule:nonzero;stroke:none"
             id="path22" /></g><g
           id="g24"><g
             id="g26" /><g
             id="g38"><g
               clip-path="url(#clipPath30)"
               opacity="0.699997"
               id="g36"><g
                 transform="translate(187.0405,177.8818)"
                 id="g34"><path
                   d="m 0,0 c -47.669,14.689 -156.807,49.179 -136.041,145.954 24,111.845 156.216,36.028 237.333,73.845 57.413,26.765 177.245,54.963 168.447,-65.865 C 261.18,36.383 256.266,-48.796 186.613,-68.999 116.959,-89.201 72.044,-22.201 0,0"
                   style="fill:#ffffff;fill-opacity:1;fill-rule:nonzero;stroke:none"
                   id="path32" /></g></g></g></g></g></g><g
       id="g40"
       transform="translate(43.2202,91.4941)"><path
         d="M 0,0 H 413.559"
         style="fill:none;stroke:#1a2e35;stroke-width:1;stroke-linecap:round;stroke-linejoin:round;stroke-miterlimit:10;stroke-dasharray:none;stroke-opacity:1"
         id="path42" /></g><g
       id="g44"><g
         id="g46"
         clip-path="url(#clipPath50)"><g
           id="g52"
           transform="translate(113.9707,205.4893)"><path
             d="M 0,0 C 6.053,-5.032 4.047,-34.398 22.764,-21.752 41.481,-9.105 9.556,-1.604 11.382,5.564 13.938,15.601 56.151,3.541 49.069,22.764 41.987,41.987 16.751,13.078 10.117,20.234 4.023,26.809 34.399,50.586 20.234,54.633 6.07,58.681 9.12,24.278 0,24.281 -7.096,24.284 -5.775,57.163 -18.822,45.528 -31.87,33.893 -3.349,22.43 -7.083,15.21 -9.919,9.722 -32.375,23.27 -31.364,10.623 -30.352,-2.023 -6.366,5.292 0,0"
             style="fill:#5ae4a7;fill-opacity:1;fill-rule:nonzero;stroke:none"
             id="path54" /></g><g
           id="g56"
           transform="translate(118.0176,220.5283)"><path
             d="M 0,0 C 0,0 -13.659,-16.557 -12.141,-61.579"
             style="fill:none;stroke:#1a2e35;stroke-width:1;stroke-linecap:round;stroke-linejoin:round;stroke-miterlimit:10;stroke-dasharray:none;stroke-opacity:1"
             id="path58" /></g><g
           id="g60"
           transform="translate(144.627,197.1025)"><path
             d="M 0,0 C -2.42,4.87 -22.482,8.194 -11.002,18.766 0.478,29.337 0.441,6.681 5.552,6.768 12.706,6.889 11.314,37.188 23.111,29.367 34.908,21.548 11.457,9.182 15.213,3.583 18.664,-1.56 39.482,15.078 39.949,4.912 40.417,-5.255 17.773,2.269 16.324,-3.863 15.197,-8.634 37.511,-12.977 27.613,-19.897 17.715,-26.817 14.546,-5.819 9.098,-7.181 4.958,-8.215 10.493,-25.468 2.152,-22.775 -6.189,-20.083 2.545,-5.121 0,0"
             style="fill:#5ae4a7;fill-opacity:1;fill-rule:nonzero;stroke:none"
             id="path62" /></g><g
           id="g64"><g
             id="g66" /><g
             id="g78"><g
               clip-path="url(#clipPath70)"
               opacity="0.300003"
               id="g76"><g
                 transform="translate(144.627,197.1025)"
                 id="g74"><path
                   d="M 0,0 C -2.42,4.87 -22.482,8.194 -11.002,18.766 0.478,29.337 0.441,6.681 5.552,6.768 12.706,6.889 11.314,37.188 23.111,29.367 34.908,21.548 11.457,9.182 15.213,3.583 18.664,-1.56 39.482,15.078 39.949,4.912 40.417,-5.255 17.773,2.269 16.324,-3.863 15.197,-8.634 37.511,-12.977 27.613,-19.897 17.715,-26.817 14.546,-5.819 9.098,-7.181 4.958,-8.215 10.493,-25.468 2.152,-22.775 -6.189,-20.083 2.545,-5.121 0,0"
                   style="fill:#000000;fill-opacity:1;fill-rule:nonzero;stroke:none"
                   id="path72" /></g></g></g></g><g
           id="g80"
           transform="translate(154.9458,196.8896)"><path
             d="M 0,0 C 0,0 -38.87,4.047 -42.705,-37.94"
             style="fill:none;stroke:#1a2e35;stroke-width:1;stroke-linecap:round;stroke-linejoin:round;stroke-miterlimit:10;stroke-dasharray:none;stroke-opacity:1"
             id="path82" /></g><g
           id="g84"
           transform="translate(80.8442,201.4424)"><path
             d="m 0,0 c -6.053,-5.032 -4.047,-34.398 -22.764,-21.752 -18.717,12.647 13.207,20.147 11.382,27.316 -2.556,10.037 -44.769,-2.023 -37.687,17.2 7.082,19.223 32.318,-9.686 38.952,-2.53 6.093,6.575 -24.282,30.352 -10.118,34.399 C -6.07,58.68 -9.12,24.277 0,24.281 7.096,24.284 5.775,57.163 18.822,45.528 31.87,33.893 3.349,22.43 7.082,15.21 9.919,9.722 32.375,23.27 31.364,10.623 30.352,-2.023 6.366,5.292 0,0"
             style="fill:#5ae4a7;fill-opacity:1;fill-rule:nonzero;stroke:none"
             id="path86" /></g><g
           id="g88"><g
             id="g90" /><g
             id="g102"><g
               clip-path="url(#clipPath94)"
               opacity="0.300003"
               id="g100"><g
                 transform="translate(80.8442,201.4424)"
                 id="g98"><path
                   d="m 0,0 c -6.053,-5.032 -4.047,-34.398 -22.764,-21.752 -18.717,12.647 13.207,20.147 11.382,27.316 -2.556,10.037 -44.769,-2.023 -37.687,17.2 7.082,19.223 32.318,-9.686 38.952,-2.53 6.093,6.575 -24.282,30.352 -10.118,34.399 C -6.07,58.68 -9.12,24.277 0,24.281 7.096,24.284 5.775,57.163 18.822,45.528 31.87,33.893 3.349,22.43 7.082,15.21 9.919,9.722 32.375,23.27 31.364,10.623 30.352,-2.023 6.366,5.292 0,0"
                   style="fill:#ffffff;fill-opacity:1;fill-rule:nonzero;stroke:none"
                   id="path96" /></g></g></g></g><g
           id="g104"
           transform="translate(76.5366,216.4814)"><path
             d="M 0,0 C 0,0 17.705,-23.639 21.752,-63.097"
             style="fill:none;stroke:#1a2e35;stroke-width:1;stroke-linecap:round;stroke-linejoin:round;stroke-miterlimit:10;stroke-dasharray:none;stroke-opacity:1"
             id="path106" /></g><g
           id="g108"
           transform="translate(89.2129,91.6611)"><path
             d="m 0,0 h 27.6 c 5.284,0 9.688,4.045 10.136,9.31 l 4.339,50.991 C 42.58,66.237 37.897,71.336 31.939,71.336 H -4.339 c -5.958,0 -10.641,-5.099 -10.136,-11.035 L -10.135,9.31 C -9.688,4.045 -5.284,0 0,0"
             style="fill:#5ae4a7;fill-opacity:1;fill-rule:nonzero;stroke:none"
             id="path110" /></g><g
           id="g112"
           transform="translate(89.2129,91.6611)"><path
             d="m 0,0 h 27.6 c 5.284,0 9.688,4.045 10.136,9.31 l 4.339,50.991 C 42.58,66.237 37.897,71.336 31.939,71.336 H -4.339 c -5.958,0 -10.641,-5.099 -10.136,-11.035 L -10.135,9.31 C -9.688,4.045 -5.284,0 0,0 Z"
             style="fill:none;stroke:#1a2e35;stroke-width:1;stroke-linecap:round;stroke-linejoin:round;stroke-miterlimit:10;stroke-dasharray:none;stroke-opacity:1"
             id="path114" /></g></g></g><g
       id="g116"><g
         id="g118"
         clip-path="url(#clipPath122)"><g
           id="g124"
           transform="translate(295.877,164.8965)"><path
             d="M 0,0 C -9.223,0 -35.87,6.02 -35.87,6.02 H 35.87 C 35.87,6.02 9.223,0 0,0"
             style="fill:#1a2e35;fill-opacity:1;fill-rule:nonzero;stroke:none"
             id="path126" /></g><g
           id="g128"
           transform="translate(295.877,164.8965)"><path
             d="M 0,0 C -9.223,0 -35.87,6.02 -35.87,6.02 H 35.87 C 35.87,6.02 9.223,0 0,0 Z"
             style="fill:none;stroke:#1a2e35;stroke-width:1;stroke-linecap:round;stroke-linejoin:round;stroke-miterlimit:10;stroke-dasharray:none;stroke-opacity:1"
             id="path130" /></g><path
           d="m 304.097,156.639 h -16.439 v 11.268 h 16.439 z"
           style="fill:#868686;fill-opacity:1;fill-rule:nonzero;stroke:#1a2e35;stroke-width:1;stroke-linecap:round;stroke-linejoin:round;stroke-miterlimit:10;stroke-dasharray:none;stroke-opacity:1"
           id="path132" /><path
           d="m 306.528,108.185 h -21.303 v 48.454 h 21.303 z"
           style="fill:#9a9a9a;fill-opacity:1;fill-rule:nonzero;stroke:#1a2e35;stroke-width:1;stroke-linecap:round;stroke-linejoin:round;stroke-miterlimit:10;stroke-dasharray:none;stroke-opacity:1"
           id="path134" /><g
           id="g136"
           transform="translate(335.8887,185.2881)"><path
             d="m 0,0 h -13.844 c 1.538,9.538 2.673,19.258 3.373,28.894 H 3.374 C 2.674,19.258 1.538,9.538 0,0"
             style="fill:#868686;fill-opacity:1;fill-rule:nonzero;stroke:none"
             id="path138" /></g><g
           id="g140"
           transform="translate(335.8887,185.2881)"><path
             d="m 0,0 h -13.844 c 1.538,9.538 2.673,19.258 3.373,28.894 H 3.374 C 2.674,19.258 1.538,9.538 0,0 Z"
             style="fill:none;stroke:#1a2e35;stroke-width:1;stroke-linecap:round;stroke-linejoin:round;stroke-miterlimit:10;stroke-dasharray:none;stroke-opacity:1"
             id="path142" /></g><g
           id="g144"
           transform="translate(356.918,299.5166)"><path
             d="m 0,0 h -59.678 c -7.015,0 -11.605,-5.922 -10.249,-12.903 3.821,-21.485 6.079,-42.725 6.823,-64.543 0.113,-6.322 4.924,-11.205 11.25,-11.205 h 50.238 c 6.326,0 12.021,4.883 12.833,11.205 2.42,21.586 3.294,42.823 2.618,64.543 C 13.503,-5.922 7.016,0 0,0"
             style="fill:#868686;fill-opacity:1;fill-rule:nonzero;stroke:none"
             id="path146" /></g><g
           id="g148"
           transform="translate(356.918,299.5166)"><path
             d="m 0,0 h -59.678 c -7.015,0 -11.605,-5.922 -10.249,-12.903 3.821,-21.485 6.079,-42.725 6.823,-64.543 0.113,-6.322 4.924,-11.205 11.25,-11.205 h 50.238 c 6.326,0 12.021,4.883 12.833,11.205 2.42,21.586 3.294,42.823 2.618,64.543 C 13.503,-5.922 7.016,0 0,0 Z"
             style="fill:none;stroke:#1a2e35;stroke-width:1;stroke-linecap:round;stroke-linejoin:round;stroke-miterlimit:10;stroke-dasharray:none;stroke-opacity:1"
             id="path150" /></g><g
           id="g152"
           transform="translate(360.1689,286.6138)"><path
             d="m 0,0 c 0.677,-21.72 -0.198,-42.958 -2.618,-64.543 -0.812,-6.322 -6.507,-11.206 -12.833,-11.206 h -39.653 c -6.327,0 -11.138,4.884 -11.25,11.206 -0.745,21.818 -3.003,43.058 -6.824,64.543 -1.356,6.98 3.234,12.903 10.249,12.903 h 49.094 C -6.818,12.903 -0.332,6.98 0,0"
             style="fill:#9a9a9a;fill-opacity:1;fill-rule:nonzero;stroke:none"
             id="path154" /></g><g
           id="g156"
           transform="translate(360.1689,286.6138)"><path
             d="m 0,0 c 0.677,-21.72 -0.198,-42.958 -2.618,-64.543 -0.812,-6.322 -6.507,-11.206 -12.833,-11.206 h -39.653 c -6.327,0 -11.138,4.884 -11.25,11.206 -0.745,21.818 -3.003,43.058 -6.824,64.543 -1.356,6.98 3.234,12.903 10.249,12.903 h 49.094 C -6.818,12.903 -0.332,6.98 0,0 Z"
             style="fill:none;stroke:#1a2e35;stroke-width:1;stroke-linecap:round;stroke-linejoin:round;stroke-miterlimit:10;stroke-dasharray:none;stroke-opacity:1"
             id="path158" /></g><g
           id="g160"
           transform="translate(331.7471,99.4873)"><path
             d="m 0,0 c 0,-1.137 -1.047,-1.983 -2.158,-1.741 -6.528,1.424 -26.082,5.543 -33.712,5.543 -7.629,0 -27.184,-4.119 -33.712,-5.543 -1.111,-0.242 -2.158,0.604 -2.158,1.741 0,2.204 1.534,4.106 3.689,4.569 7.642,1.642 25.078,5.211 32.181,5.211 7.102,0 24.539,-3.569 32.181,-5.211 C -1.534,4.106 0,2.204 0,0"
             style="fill:#1a2e35;fill-opacity:1;fill-rule:nonzero;stroke:none"
             id="path162" /></g><g
           id="g164"
           transform="translate(331.7471,99.4873)"><path
             d="m 0,0 c 0,-1.137 -1.047,-1.983 -2.158,-1.741 -6.528,1.424 -26.082,5.543 -33.712,5.543 -7.629,0 -27.184,-4.119 -33.712,-5.543 -1.111,-0.242 -2.158,0.604 -2.158,1.741 0,2.204 1.534,4.106 3.689,4.569 7.642,1.642 25.078,5.211 32.181,5.211 7.102,0 24.539,-3.569 32.181,-5.211 C -1.534,4.106 0,2.204 0,0 Z"
             style="fill:none;stroke:#1a2e35;stroke-width:1;stroke-linecap:round;stroke-linejoin:round;stroke-miterlimit:10;stroke-dasharray:none;stroke-opacity:1"
             id="path166" /></g><g
           id="g168"
           transform="translate(260.0068,93.6338)"><path
             d="m 0,0 c -1.836,0 -3.323,1.487 -3.323,3.323 0,1.835 1.487,3.323 3.323,3.323 1.835,0 3.322,-1.488 3.322,-3.323 C 3.322,1.487 1.835,0 0,0 m 0,9.458 c -3.389,0 -6.135,-2.747 -6.135,-6.135 0,-3.388 2.746,-6.136 6.135,-6.136 3.388,0 6.135,2.748 6.135,6.136 0,3.388 -2.747,6.135 -6.135,6.135"
             style="fill:#868686;fill-opacity:1;fill-rule:nonzero;stroke:none"
             id="path170" /></g><g
           id="g172"
           transform="translate(260.0068,93.6338)"><path
             d="m 0,0 c -1.836,0 -3.323,1.487 -3.323,3.323 0,1.835 1.487,3.323 3.323,3.323 1.835,0 3.322,-1.488 3.322,-3.323 C 3.322,1.487 1.835,0 0,0 Z m 0,9.458 c -3.389,0 -6.135,-2.747 -6.135,-6.135 0,-3.388 2.746,-6.136 6.135,-6.136 3.388,0 6.135,2.748 6.135,6.136 0,3.388 -2.747,6.135 -6.135,6.135 z"
             style="fill:none;stroke:#1a2e35;stroke-width:1;stroke-linecap:round;stroke-linejoin:round;stroke-miterlimit:10;stroke-dasharray:none;stroke-opacity:1"
             id="path174" /></g><g
           id="g176"
           transform="translate(295.877,93.6338)"><path
             d="m 0,0 c -1.835,0 -3.322,1.487 -3.322,3.323 0,1.835 1.487,3.323 3.322,3.323 1.835,0 3.323,-1.488 3.323,-3.323 C 3.323,1.487 1.835,0 0,0 m 0,9.458 c -3.388,0 -6.135,-2.747 -6.135,-6.135 0,-3.388 2.747,-6.136 6.135,-6.136 3.389,0 6.135,2.748 6.135,6.136 0,3.388 -2.746,6.135 -6.135,6.135"
             style="fill:#868686;fill-opacity:1;fill-rule:nonzero;stroke:none"
             id="path178" /></g><g
           id="g180"
           transform="translate(295.877,93.6338)"><path
             d="m 0,0 c -1.835,0 -3.322,1.487 -3.322,3.323 0,1.835 1.487,3.323 3.322,3.323 1.835,0 3.323,-1.488 3.323,-3.323 C 3.323,1.487 1.835,0 0,0 Z m 0,9.458 c -3.388,0 -6.135,-2.747 -6.135,-6.135 0,-3.388 2.747,-6.136 6.135,-6.136 3.389,0 6.135,2.748 6.135,6.136 0,3.388 -2.746,6.135 -6.135,6.135 z"
             style="fill:none;stroke:#1a2e35;stroke-width:1;stroke-linecap:round;stroke-linejoin:round;stroke-miterlimit:10;stroke-dasharray:none;stroke-opacity:1"
             id="path182" /></g><g
           id="g184"
           transform="translate(331.0029,93.6338)"><path
             d="m 0,0 c -1.836,0 -3.323,1.487 -3.323,3.323 0,1.835 1.487,3.323 3.323,3.323 1.835,0 3.322,-1.488 3.322,-3.323 C 3.322,1.487 1.835,0 0,0 m 0,9.458 c -3.389,0 -6.136,-2.747 -6.136,-6.135 0,-3.388 2.747,-6.136 6.136,-6.136 3.388,0 6.135,2.748 6.135,6.136 0,3.388 -2.747,6.135 -6.135,6.135"
             style="fill:#868686;fill-opacity:1;fill-rule:nonzero;stroke:none"
             id="path186" /></g><g
           id="g188"
           transform="translate(331.0029,93.6338)"><path
             d="m 0,0 c -1.836,0 -3.323,1.487 -3.323,3.323 0,1.835 1.487,3.323 3.323,3.323 1.835,0 3.322,-1.488 3.322,-3.323 C 3.322,1.487 1.835,0 0,0 Z m 0,9.458 c -3.389,0 -6.136,-2.747 -6.136,-6.135 0,-3.388 2.747,-6.136 6.136,-6.136 3.388,0 6.135,2.748 6.135,6.136 0,3.388 -2.747,6.135 -6.135,6.135 z"
             style="fill:none;stroke:#1a2e35;stroke-width:1;stroke-linecap:round;stroke-linejoin:round;stroke-miterlimit:10;stroke-dasharray:none;stroke-opacity:1"
             id="path190" /></g><g
           id="g192"
           transform="translate(314.0615,187.2275)"><path
             d="m 0,0 c -24.144,-0.747 -47.709,0.295 -71.692,3.17 -4.883,0.656 -8.831,-2.686 -8.831,-7.586 v -1.171 c 0,-4.901 3.948,-9.504 8.831,-10.161 23.983,-2.874 47.548,-3.916 71.692,-3.169 z"
             style="fill:#9a9a9a;fill-opacity:1;fill-rule:nonzero;stroke:none"
             id="path194" /></g><g
           id="g196"
           transform="translate(314.0615,187.2275)"><path
             d="m 0,0 c -24.144,-0.747 -47.709,0.295 -71.692,3.17 -4.883,0.656 -8.831,-2.686 -8.831,-7.586 v -1.171 c 0,-4.901 3.948,-9.504 8.831,-10.161 23.983,-2.874 47.548,-3.916 71.692,-3.169 z"
             style="fill:none;stroke:#1a2e35;stroke-width:1;stroke-linecap:round;stroke-linejoin:round;stroke-miterlimit:10;stroke-dasharray:none;stroke-opacity:1"
             id="path198" /></g><g
           id="g200"
           transform="translate(351.6621,171.793)"><path
             d="m 0,0 c -14.86,-1.858 -29.591,-3.095 -44.554,-3.737 -3.647,-0.102 -6.606,2.818 -6.606,6.457 v 5.743 c 0,3.638 2.959,6.615 6.606,6.717 14.963,0.643 29.694,1.879 44.554,3.737 3.623,0.508 6.554,-1.975 6.554,-5.612 V 7.562 C 6.554,3.923 3.623,0.508 0,0"
             style="fill:#868686;fill-opacity:1;fill-rule:nonzero;stroke:none"
             id="path202" /></g><g
           id="g204"
           transform="translate(351.6621,171.793)"><path
             d="m 0,0 c -14.86,-1.858 -29.591,-3.095 -44.554,-3.737 -3.647,-0.102 -6.606,2.818 -6.606,6.457 v 5.743 c 0,3.638 2.959,6.615 6.606,6.717 14.963,0.643 29.694,1.879 44.554,3.737 3.623,0.508 6.554,-1.975 6.554,-5.612 V 7.562 C 6.554,3.923 3.623,0.508 0,0 Z"
             style="fill:none;stroke:#1a2e35;stroke-width:1;stroke-linecap:round;stroke-linejoin:round;stroke-miterlimit:10;stroke-dasharray:none;stroke-opacity:1"
             id="path206" /></g><g
           id="g208"
           transform="translate(252.165,94.0088)"><path
             d="m 0,0 c -0.044,3.341 -0.729,10.028 -4.66,18.652 l -5.133,18.5 -16,-6.834 4.5,-14.166 c 0,0 -13.755,-6.563 -18.833,-8.334 -3.383,-1.178 -13.5,-3.5 -13,-7.833 0,-1.289 1.044,-2.333 2.333,-2.333 H -2.334 C -1.038,-2.348 0.017,-1.296 0,0"
             style="fill:#ffffff;fill-opacity:1;fill-rule:nonzero;stroke:none"
             id="path210" /></g><g
           id="g212"
           transform="translate(252.165,94.0088)"><path
             d="m 0,0 c -0.044,3.341 -0.729,10.028 -4.66,18.652 l -5.133,18.5 -16,-6.834 4.5,-14.166 c 0,0 -13.755,-6.563 -18.833,-8.334 -3.383,-1.178 -13.5,-3.5 -13,-7.833 0,-1.289 1.044,-2.333 2.333,-2.333 H -2.334 C -1.038,-2.348 0.017,-1.296 0,0 Z"
             style="fill:none;stroke:#1a2e35;stroke-width:1;stroke-linecap:round;stroke-linejoin:round;stroke-miterlimit:10;stroke-dasharray:none;stroke-opacity:1"
             id="path214" /></g><g
           id="g216"
           transform="translate(243.3613,104.8271)"><path
             d="m 0,0 c -2.5,-1.833 -15.833,-4.166 -12.489,-1.5 3.343,2.667 0,6.834 0,6.834 0,0 -13.755,-6.563 -18.834,-8.334 -3.383,-1.179 -13.5,-3.5 -13,-7.833 0,-1.289 1.045,-2.333 2.334,-2.333 H 6.47 c 1.296,0 2.35,1.052 2.334,2.348 C 8.767,-7.997 8.265,-2.78 5.742,3.967 2.987,3.933 2.5,1.833 0,0"
             style="fill:#5ae4a7;fill-opacity:1;fill-rule:nonzero;stroke:none"
             id="path218" /></g><g
           id="g220"
           transform="translate(243.3613,104.8271)"><path
             d="m 0,0 c -2.5,-1.833 -15.833,-4.166 -12.489,-1.5 3.343,2.667 0,6.834 0,6.834 0,0 -13.755,-6.563 -18.834,-8.334 -3.383,-1.179 -13.5,-3.5 -13,-7.833 0,-1.289 1.045,-2.333 2.334,-2.333 H 6.47 c 1.296,0 2.35,1.052 2.334,2.348 C 8.767,-7.997 8.265,-2.78 5.742,3.967 2.987,3.933 2.5,1.833 0,0 Z"
             style="fill:none;stroke:#1a2e35;stroke-width:1;stroke-linecap:round;stroke-linejoin:round;stroke-miterlimit:10;stroke-dasharray:none;stroke-opacity:1"
             id="path222" /></g><g
           id="g224"
           transform="translate(263.7402,91.6611)"><path
             d="m 0,0 h 35.498 c 0.734,0 1.36,0.52 1.499,1.24 0.544,2.822 0.42,9.131 -2.782,17.51 L 33.9,35.76 15.715,32.666 l 2.307,-14.5 c 0,0 -7.322,-8.057 -10.799,-9.5 C 4.778,7.652 -0.775,7.545 -1.521,1.701 -1.637,0.798 -0.911,0 0,0"
             style="fill:#ffffff;fill-opacity:1;fill-rule:nonzero;stroke:none"
             id="path226" /></g><g
           id="g228"
           transform="translate(263.7402,91.6611)"><path
             d="m 0,0 h 35.498 c 0.734,0 1.36,0.52 1.499,1.24 0.544,2.822 0.42,9.131 -2.782,17.51 L 33.9,35.76 15.715,32.666 l 2.307,-14.5 c 0,0 -7.322,-8.057 -10.799,-9.5 C 4.778,7.652 -0.775,7.545 -1.521,1.701 -1.637,0.798 -0.911,0 0,0 Z"
             style="fill:none;stroke:#1a2e35;stroke-width:1;stroke-linecap:round;stroke-linejoin:round;stroke-miterlimit:10;stroke-dasharray:none;stroke-opacity:1"
             id="path230" /></g><g
           id="g232"
           transform="translate(291.9629,104.7627)"><path
             d="m 0,0 c -3.753,-2.624 -6.519,-2.936 -4.769,1 1.75,3.935 -5.431,4.064 -5.431,4.064 0,0 -7.322,-8.056 -10.8,-9.5 -2.444,-1.013 -7.998,-1.121 -8.744,-6.964 -0.115,-0.904 0.61,-1.702 1.521,-1.702 H 7.275 c 0.735,0 1.361,0.52 1.499,1.241 C 9.318,-9.039 9.194,-2.73 5.992,5.648 3.253,4.981 3.754,2.624 0,0"
             style="fill:#5ae4a7;fill-opacity:1;fill-rule:nonzero;stroke:none"
             id="path234" /></g><g
           id="g236"
           transform="translate(291.9629,104.7627)"><path
             d="m 0,0 c -3.753,-2.624 -6.519,-2.936 -4.769,1 1.75,3.935 -5.431,4.064 -5.431,4.064 0,0 -7.322,-8.056 -10.8,-9.5 -2.444,-1.013 -7.998,-1.121 -8.744,-6.964 -0.115,-0.904 0.61,-1.702 1.521,-1.702 H 7.275 c 0.735,0 1.361,0.52 1.499,1.241 C 9.318,-9.039 9.194,-2.73 5.992,5.648 3.253,4.981 3.754,2.624 0,0 Z"
             style="fill:none;stroke:#1a2e35;stroke-width:1;stroke-linecap:round;stroke-linejoin:round;stroke-miterlimit:10;stroke-dasharray:none;stroke-opacity:1"
             id="path238" /></g><g
           id="g240"
           transform="translate(260.2051,221.4941)"><path
             d="m 0,0 c 0,0 -3.574,-3.667 -18.204,-6 -14.629,-2.333 -44.963,-9.667 -44.629,-21.667 0.333,-12 28.333,-76 28.333,-76 0,0 14,2.667 20.5,6.667 0,0 -11.269,45.667 -19.718,57.667 0,0 37.931,4.666 58.908,13.333 20.977,8.667 8.644,28.391 8.644,28.391 z"
             style="fill:#1a2e35;fill-opacity:1;fill-rule:nonzero;stroke:none"
             id="path242" /></g><g
           id="g244"
           transform="translate(260.2051,221.4941)"><path
             d="m 0,0 c 0,0 -3.574,-3.667 -18.204,-6 -14.629,-2.333 -44.963,-9.667 -44.629,-21.667 0.333,-12 28.333,-76 28.333,-76 0,0 14,2.667 20.5,6.667 0,0 -11.269,45.667 -19.718,57.667 0,0 37.931,4.666 58.908,13.333 20.977,8.667 8.644,28.391 8.644,28.391 z"
             style="fill:none;stroke:#1a2e35;stroke-width:1;stroke-linecap:round;stroke-linejoin:round;stroke-miterlimit:10;stroke-dasharray:none;stroke-opacity:1"
             id="path246" /></g><g
           id="g248"
           transform="translate(284.0371,223.1787)"><path
             d="m 0,0 c 0,0 5.381,-9.018 1.358,-14.018 -4.023,-5 -26.842,-14.334 -24.266,-25.667 2.576,-11.333 11.096,-27.333 16.653,-65.333 0,0 12.923,2 21.59,5.666 0,0 1.436,38.667 -8.615,55.334 0,0 28.782,5.333 31.698,15 2.917,9.666 -2.54,24.449 -2.645,29.724 z"
             style="fill:#1a2e35;fill-opacity:1;fill-rule:nonzero;stroke:none"
             id="path250" /></g><g
           id="g252"
           transform="translate(284.0371,223.1787)"><path
             d="m 0,0 c 0,0 5.381,-9.018 1.358,-14.018 -4.023,-5 -26.842,-14.334 -24.266,-25.667 2.576,-11.333 11.096,-27.333 16.653,-65.333 0,0 12.923,2 21.59,5.666 0,0 1.436,38.667 -8.615,55.334 0,0 28.782,5.333 31.698,15 2.917,9.666 -2.54,24.449 -2.645,29.724 z"
             style="fill:none;stroke:#1a2e35;stroke-width:1;stroke-linecap:round;stroke-linejoin:round;stroke-miterlimit:10;stroke-dasharray:none;stroke-opacity:1"
             id="path254" /></g><g
           id="g256"
           transform="translate(266.6973,208.8594)"><path
             d="M 0,0 C -0.637,0.042 -1.301,0.035 -1.992,-0.032"
             style="fill:none;stroke:#808080;stroke-width:0.75;stroke-linecap:round;stroke-linejoin:round;stroke-miterlimit:4;stroke-dasharray:none;stroke-opacity:1"
             id="path258" /></g><g
           id="g260"
           transform="translate(267.9629,214.8271)"><path
             d="M 0,0 C 0,0 5.911,-1.739 8.23,-9.442 8.414,-10.053 7.653,-10.52 7.205,-10.066 5.974,-8.822 4.054,-7.293 1.512,-6.491"
             style="fill:none;stroke:#808080;stroke-width:0.75;stroke-linecap:round;stroke-linejoin:round;stroke-miterlimit:4;stroke-dasharray:none;stroke-opacity:1"
             id="path262" /></g><g
           id="g264"
           transform="translate(223.7056,182.5771)"><path
             d="M 0,0 C 0,3.251 -14,5 -10.25,8 -6.5,11 2,1.25 2,1.25"
             style="fill:none;stroke:#808080;stroke-width:0.75;stroke-linecap:round;stroke-linejoin:round;stroke-miterlimit:4;stroke-dasharray:none;stroke-opacity:1"
             id="path266" /></g><g
           id="g268"
           transform="translate(292.4971,169.5771)"><path
             d="m 0,0 c 0,3.722 -13.379,5.75 -12.71,9.75 0.668,4 9.168,-3.875 9.168,-3.875"
             style="fill:none;stroke:#808080;stroke-width:0.75;stroke-linecap:round;stroke-linejoin:round;stroke-miterlimit:4;stroke-dasharray:none;stroke-opacity:1"
             id="path270" /></g><g
           id="g272"
           transform="translate(224.231,117.5986)"><path
             d="M 0,0 1.473,-3.399 C 1.641,-3.785 2.054,-4 2.464,-3.907 c 3.234,0.729 16.715,3.914 21.449,7.309 0.282,0.202 0.399,0.566 0.317,0.903 L 23.312,8.094 C 23.176,8.655 22.546,8.932 22.039,8.654 19.913,7.492 13.981,4.723 0.589,1.196 0.07,1.06 -0.213,0.493 0,0"
             style="fill:#9a9a9a;fill-opacity:1;fill-rule:nonzero;stroke:none"
             id="path274" /></g><g
           id="g276"
           transform="translate(224.231,117.5986)"><path
             d="M 0,0 1.473,-3.399 C 1.641,-3.785 2.054,-4 2.464,-3.907 c 3.234,0.729 16.715,3.914 21.449,7.309 0.282,0.202 0.399,0.566 0.317,0.903 L 23.312,8.094 C 23.176,8.655 22.546,8.932 22.039,8.654 19.913,7.492 13.981,4.723 0.589,1.196 0.07,1.06 -0.213,0.493 0,0 Z"
             style="fill:none;stroke:#1a2e35;stroke-width:1;stroke-linecap:round;stroke-linejoin:round;stroke-miterlimit:10;stroke-dasharray:none;stroke-opacity:1"
             id="path278" /></g><g
           id="g280"
           transform="translate(276.1543,120.3984)"><path
             d="M 0,0 C -0.074,0.511 0.42,0.934 0.903,0.755 1.862,0.399 3.486,0.121 5.926,0.679 9.633,1.526 20.248,4.886 23.405,5.893 23.852,6.035 24.301,5.7 24.301,5.231 V 0.81 C 24.301,0.536 24.146,0.291 23.896,0.18 21.413,-0.926 8.127,-6.617 1.173,-5.066 0.896,-5.004 0.692,-4.767 0.651,-4.485 Z"
             style="fill:#9a9a9a;fill-opacity:1;fill-rule:nonzero;stroke:none"
             id="path282" /></g><g
           id="g284"
           transform="translate(276.1543,120.3984)"><path
             d="M 0,0 C -0.074,0.511 0.42,0.934 0.903,0.755 1.862,0.399 3.486,0.121 5.926,0.679 9.633,1.526 20.248,4.886 23.405,5.893 23.852,6.035 24.301,5.7 24.301,5.231 V 0.81 C 24.301,0.536 24.146,0.291 23.896,0.18 21.413,-0.926 8.127,-6.617 1.173,-5.066 0.896,-5.004 0.692,-4.767 0.651,-4.485 Z"
             style="fill:none;stroke:#1a2e35;stroke-width:1;stroke-linecap:round;stroke-linejoin:round;stroke-miterlimit:10;stroke-dasharray:none;stroke-opacity:1"
             id="path286" /></g><g
           id="g288"
           transform="translate(286.8477,212.959)"><path
             d="M 0,0 C -0.126,-1.369 -0.556,-2.684 -1.452,-3.798 -4.387,-7.445 -17.321,-13.397 -23.107,-20.75"
             style="fill:none;stroke:#808080;stroke-width:1;stroke-linecap:round;stroke-linejoin:round;stroke-miterlimit:4;stroke-dasharray:none;stroke-opacity:1"
             id="path290" /></g><g
           id="g292"
           transform="translate(286.2246,218.0449)"><path
             d="M 0,0 C 0.211,-0.72 0.39,-1.479 0.509,-2.252"
             style="fill:none;stroke:#808080;stroke-width:1;stroke-linecap:round;stroke-linejoin:round;stroke-miterlimit:4;stroke-dasharray:none;stroke-opacity:1"
             id="path294" /></g><g
           id="g296"
           transform="translate(209.6396,99.5771)"><path
             d="m 0,0 c 0,0 1,-1.583 1.75,-4.75 h 36.115 c 0,0 0.096,2.421 2.01,4.125"
             style="fill:none;stroke:#1a2e35;stroke-width:1;stroke-linecap:round;stroke-linejoin:round;stroke-miterlimit:10;stroke-dasharray:none;stroke-opacity:1"
             id="path298" /></g><g
           id="g300"
           transform="translate(272.3896,99.5771)"><path
             d="M 0,0 C 0,0 5,-0.375 6.875,-4.75 H 25.75 c 0,0 1,2.25 1,4.125"
             style="fill:none;stroke:#1a2e35;stroke-width:1;stroke-linecap:round;stroke-linejoin:round;stroke-miterlimit:10;stroke-dasharray:none;stroke-opacity:1"
             id="path302" /></g><g
           id="g304"
           transform="translate(242.79,278.0513)"><path
             d="m 0,0 c 0.464,-1.766 0.94,-3.514 1.416,-5.224 5,-18 11.499,-52.25 11.499,-52.25 32,-6.75 65.75,0 65.75,0 0.184,7.467 -0.725,17.315 -1.738,27.66 5.248,1.452 9.032,6.296 9.238,14.34 0.25,9.75 -1.517,27.305 -2.5,35.5 -0.865,7.212 -0.25,11.5 -11.42,16.965 -5.598,3.232 -14.893,4.76 -26.33,6.285 -22.5,3 -38.736,-1.546 -44.499,-4 -4.568,1.203 -5.839,-4.161 -5.839,-4.161 -2.531,1.917 -5.469,-6.185 -5.469,-6.185 -7.401,-9.444 -13.223,-25.346 -15.158,-31.018 -0.424,-1.242 -1.217,-2.315 -2.26,-3.111 -5.25,-4.003 -2.332,-8.952 -2.332,-8.952 l 10.75,-3.295 c 0,0 5.208,-1.355 9.187,5.494 C -6.376,-6.222 -0.937,3.491 0,0"
             style="fill:#5ae4a7;fill-opacity:1;fill-rule:nonzero;stroke:none"
             id="path306" /></g></g></g><g
       id="g308"><g
         id="g310"
         clip-path="url(#clipPath314)"><g
           id="g316"><g
             id="g318" /><g
             id="g330"><g
               clip-path="url(#clipPath322)"
               opacity="0.300003"
               id="g328"><g
                 transform="translate(225.8784,265.126)"
                 id="g326"><path
                   d="m 0,0 c 0,0 -0.25,4.999 -4.25,5.874 -4,0.875 1.125,2.368 4.25,1.621 3.125,-0.746 2.405,2.004 5.077,6.504 2.673,4.5 3.985,8.057 6.267,5.462 2.282,-2.594 4.605,-2.951 5.568,-6.536 C 17.875,9.341 13.125,0.974 13.125,0.974 L 5.663,-4.813 1.875,-6.938 h -5.658 l -1.932,4.89 z"
                   style="fill:#000000;fill-opacity:1;fill-rule:nonzero;stroke:none"
                   id="path324" /></g></g></g></g></g></g><g
       id="g332"><g
         id="g334"
         clip-path="url(#clipPath338)"><g
           id="g340"
           transform="translate(242.79,278.0513)"><path
             d="m 0,0 c 0.464,-1.766 0.94,-3.514 1.416,-5.224 5,-18 11.499,-52.25 11.499,-52.25 32,-6.75 65.75,0 65.75,0 0.184,7.467 -0.725,17.315 -1.738,27.66 5.248,1.452 9.032,6.296 9.238,14.34 0.25,9.75 -1.517,27.305 -2.5,35.5 -0.865,7.212 -0.25,11.5 -11.42,16.965 -5.598,3.232 -14.893,4.76 -26.33,6.285 -22.5,3 -38.736,-1.546 -44.499,-4 -4.568,1.203 -5.839,-4.161 -5.839,-4.161 -2.531,1.917 -5.469,-6.185 -5.469,-6.185 -7.401,-9.444 -13.223,-25.346 -15.158,-31.018 -0.424,-1.242 -1.217,-2.315 -2.26,-3.111 -5.25,-4.003 -2.332,-8.952 -2.332,-8.952 l 10.75,-3.295 c 0,0 5.208,-1.355 9.187,5.494 C -6.376,-6.222 -0.937,3.491 0,0 Z"
             style="fill:none;stroke:#1a2e35;stroke-width:1;stroke-linecap:round;stroke-linejoin:round;stroke-miterlimit:10;stroke-dasharray:none;stroke-opacity:1"
             id="path342" /></g><g
           id="g344"><g
             id="g346" /><g
             id="g358"><g
               clip-path="url(#clipPath350)"
               opacity="0.300003"
               id="g356"><g
                 transform="translate(321.4551,220.5771)"
                 id="g354"><path
                   d="M 0,0 C 0.133,5.402 -0.309,12.06 -0.945,19.241 0.145,4.018 -31.565,-0.746 -32.565,7.505 -33.565,15.76 -1.738,27.66 -19.056,23.5 -34.17,19.87 -63.451,23.338 -70.657,24.279 -67.89,11.272 -65.75,0 -65.75,0 -33.75,-6.75 0,0 0,0"
                   style="fill:#000000;fill-opacity:1;fill-rule:nonzero;stroke:none"
                   id="path352" /></g></g></g></g><g
           id="g360"><g
             id="g362" /><g
             id="g374"><g
               clip-path="url(#clipPath366)"
               opacity="0.300003"
               id="g372"><g
                 transform="translate(306.915,297.0771)"
                 id="g370"><path
                   d="m 0,0 c 0,0 -4.525,-13.25 -4.516,-20.25 0.01,-6.993 -12.694,-11.692 -12.716,-11.701 6.802,1.387 13.425,3.216 16.59,4.13 1.123,0.324 1.857,1.39 1.755,2.554 C 0.489,-18.09 -0.187,-8.426 0.001,0 Z"
                   style="fill:#000000;fill-opacity:1;fill-rule:nonzero;stroke:none"
                   id="path368" /></g></g></g></g><g
           id="g376"
           transform="translate(238.5996,300.4131)"><path
             d="m 0,0 c 0,0 -0.152,-9.531 3.335,-18.291 0.324,-0.812 -0.599,-1.553 -1.31,-1.044 -1.715,1.228 -4.141,3.731 -6.335,8.773"
             style="fill:none;stroke:#1a2e35;stroke-width:0.75;stroke-linecap:round;stroke-linejoin:round;stroke-miterlimit:10;stroke-dasharray:none;stroke-opacity:1"
             id="path378" /></g><g
           id="g380"
           transform="translate(323.4551,259.5776)"><path
             d="m 0,0 c -2.638,8.748 -7.204,10.94 -10.743,11.16 -0.569,0.035 -0.758,0.779 -0.258,1.05 2.054,1.113 6.062,1.991 11.001,-3.46"
             style="fill:none;stroke:#1a2e35;stroke-width:0.75;stroke-linecap:round;stroke-linejoin:round;stroke-miterlimit:10;stroke-dasharray:none;stroke-opacity:1"
             id="path382" /></g><g
           id="g384"
           transform="translate(272.7275,284.623)"><path
             d="m 0,0 c 0,-0.83 -0.673,-1.502 -1.502,-1.502 -0.83,0 -1.503,0.672 -1.503,1.502 0,0.83 0.673,1.502 1.503,1.502 C -0.673,1.502 0,0.83 0,0"
             style="fill:#9a9a9a;fill-opacity:1;fill-rule:nonzero;stroke:none"
             id="path386" /></g><g
           id="g388"
           transform="translate(272.7275,284.623)"><path
             d="m 0,0 c 0,-0.83 -0.673,-1.502 -1.502,-1.502 -0.83,0 -1.503,0.672 -1.503,1.502 0,0.83 0.673,1.502 1.503,1.502 C -0.673,1.502 0,0.83 0,0 Z"
             style="fill:none;stroke:#1a2e35;stroke-width:0.75;stroke-linecap:round;stroke-linejoin:round;stroke-miterlimit:10;stroke-dasharray:none;stroke-opacity:1"
             id="path390" /></g><g
           id="g392"
           transform="translate(274.7646,267.6016)"><path
             d="m 0,0 c 0,-0.83 -0.673,-1.502 -1.503,-1.502 -0.83,0 -1.502,0.672 -1.502,1.502 0,0.83 0.672,1.503 1.502,1.503 C -0.673,1.503 0,0.83 0,0"
             style="fill:#9a9a9a;fill-opacity:1;fill-rule:nonzero;stroke:none"
             id="path394" /></g><g
           id="g396"
           transform="translate(274.7646,267.6016)"><path
             d="m 0,0 c 0,-0.83 -0.673,-1.502 -1.503,-1.502 -0.83,0 -1.502,0.672 -1.502,1.502 0,0.83 0.672,1.503 1.502,1.503 C -0.673,1.503 0,0.83 0,0 Z"
             style="fill:none;stroke:#1a2e35;stroke-width:0.75;stroke-linecap:round;stroke-linejoin:round;stroke-miterlimit:10;stroke-dasharray:none;stroke-opacity:1"
             id="path398" /></g><g
           id="g400"
           transform="translate(279.7871,226.5801)"><path
             d="m 0,0 c 0,-0.83 -0.673,-1.503 -1.503,-1.503 -0.829,0 -1.502,0.673 -1.502,1.503 0,0.83 0.673,1.502 1.502,1.502 C -0.673,1.502 0,0.83 0,0"
             style="fill:#9a9a9a;fill-opacity:1;fill-rule:nonzero;stroke:none"
             id="path402" /></g><g
           id="g404"
           transform="translate(279.7871,226.5801)"><path
             d="m 0,0 c 0,-0.83 -0.673,-1.503 -1.503,-1.503 -0.829,0 -1.502,0.673 -1.502,1.503 0,0.83 0.673,1.502 1.502,1.502 C -0.673,1.502 0,0.83 0,0 Z"
             style="fill:none;stroke:#1a2e35;stroke-width:1;stroke-linecap:round;stroke-linejoin:round;stroke-miterlimit:10;stroke-dasharray:none;stroke-opacity:1"
             id="path406" /></g><g
           id="g408"
           transform="translate(251.0723,256.4526)"><path
             d="m 0,0 c 0,0 -4.912,-4.686 -2.576,-4.759 2.335,-0.073 5.29,3.134 7.999,3.509 2.71,0.375 -1.665,2.031 -1.665,2.031 z"
             style="fill:#ffffff;fill-opacity:1;fill-rule:nonzero;stroke:none"
             id="path410" /></g><g
           id="g412"
           transform="translate(251.0723,256.4526)"><path
             d="m 0,0 c 0,0 -4.912,-4.686 -2.576,-4.759 2.335,-0.073 5.29,3.134 7.999,3.509 2.71,0.375 -1.665,2.031 -1.665,2.031 z"
             style="fill:none;stroke:#1a2e35;stroke-width:1;stroke-linecap:round;stroke-linejoin:round;stroke-miterlimit:10;stroke-dasharray:none;stroke-opacity:1"
             id="path414" /></g><g
           id="g416"
           transform="translate(279.7422,261.7153)"><path
             d="M 0,0 C -0.44,0.401 -1.036,0.59 -1.63,0.542 -4.036,0.349 -10.928,-0.174 -13.537,-0.013 -18.151,0.271 -31.758,3.154 -31.758,3.154 -32.073,3.208 -32.397,3.19 -32.704,3.1 L -41.13,0.625 c -0.307,-0.091 -0.589,-0.25 -0.825,-0.467 l -5.1,-4.687 c -0.168,-0.155 -0.31,-0.336 -0.42,-0.537 l -1.056,-1.937 c -0.448,-0.819 -0.296,-1.836 0.37,-2.49 l 8.439,-0.264 c 0.521,-0.016 1.029,0.163 1.425,0.502 l 2.499,2.143 c 0.166,0.143 0.307,0.312 0.423,0.498 0.616,0.988 2.971,4.296 6.705,3.976 0,0 -7.992,-4.25 -6.492,-6 1.5,-1.75 7.625,3.25 9.625,2.75 1.957,-0.489 2.133,-5.405 13.018,-3.628 0.483,0.079 0.984,0.06 1.455,-0.071 l 9.899,-2.768 c 1.24,-0.347 2.513,0.397 2.832,1.644 C 2.408,-7.815 3.084,-2.811 0,0"
             style="fill:#ffffff;fill-opacity:1;fill-rule:nonzero;stroke:none"
             id="path418" /></g><g
           id="g420"
           transform="translate(279.7422,261.7153)"><path
             d="M 0,0 C -0.44,0.401 -1.036,0.59 -1.63,0.542 -4.036,0.349 -10.928,-0.174 -13.537,-0.013 -18.151,0.271 -31.758,3.154 -31.758,3.154 -32.073,3.208 -32.397,3.19 -32.704,3.1 L -41.13,0.625 c -0.307,-0.091 -0.589,-0.25 -0.825,-0.467 l -5.1,-4.687 c -0.168,-0.155 -0.31,-0.336 -0.42,-0.537 l -1.056,-1.937 c -0.448,-0.819 -0.296,-1.836 0.37,-2.49 l 8.439,-0.264 c 0.521,-0.016 1.029,0.163 1.425,0.502 l 2.499,2.143 c 0.166,0.143 0.307,0.312 0.423,0.498 0.616,0.988 2.971,4.296 6.705,3.976 0,0 -7.992,-4.25 -6.492,-6 1.5,-1.75 7.625,3.25 9.625,2.75 1.957,-0.489 2.133,-5.405 13.018,-3.628 0.483,0.079 0.984,0.06 1.455,-0.071 l 9.899,-2.768 c 1.24,-0.347 2.513,0.397 2.832,1.644 C 2.408,-7.815 3.084,-2.811 0,0 Z"
             style="fill:none;stroke:#1a2e35;stroke-width:1;stroke-linecap:round;stroke-linejoin:round;stroke-miterlimit:10;stroke-dasharray:none;stroke-opacity:1"
             id="path422" /></g><g
           id="g424"
           transform="translate(249.1611,263.0776)"><path
             d="m 0,0 -2.124,-0.358 c -1.034,-0.175 -2,-0.633 -2.79,-1.324 L -7.12,-3.613 c -0.389,-0.34 -0.729,-0.731 -1.012,-1.163 L -9.58,-6.991 c -0.159,-0.244 -0.339,-0.473 -0.535,-0.689 -0.86,-0.948 -3.227,-3.763 -0.67,-3.388"
             style="fill:#ffffff;fill-opacity:1;fill-rule:nonzero;stroke:#1a2e35;stroke-width:1;stroke-linecap:round;stroke-linejoin:round;stroke-miterlimit:10;stroke-dasharray:none;stroke-opacity:1"
             id="path426" /></g><g
           id="g428"
           transform="translate(243.1919,262.3276)"><path
             d="m 0,0 -2.195,-0.593 c -0.683,-0.185 -1.309,-0.539 -1.82,-1.03 L -5.726,-3.266 C -5.888,-3.422 -6.038,-3.59 -6.173,-3.771 L -8.981,-7.5 c 0,0 -1.504,-2.641 0,-2.688"
             style="fill:#ffffff;fill-opacity:1;fill-rule:nonzero;stroke:#1a2e35;stroke-width:1;stroke-linecap:round;stroke-linejoin:round;stroke-miterlimit:10;stroke-dasharray:none;stroke-opacity:1"
             id="path430" /></g><g
           id="g432"
           transform="translate(306.9805,299.1987)"><path
             d="m 0,0 c -0.37,-8.882 0.37,-19.602 1.048,-27.388 0.101,-1.164 -0.632,-2.23 -1.755,-2.554 -4.366,-1.261 -15.314,-4.269 -24.238,-5.446"
             style="fill:none;stroke:#1a2e35;stroke-width:1;stroke-linecap:round;stroke-linejoin:round;stroke-miterlimit:10;stroke-dasharray:none;stroke-opacity:1"
             id="path434" /></g><g
           id="g436"
           transform="translate(307.4785,305.3994)"><path
             d="M 0,0 C -0.131,-1.017 -0.238,-2.086 -0.323,-3.198"
             style="fill:none;stroke:#1a2e35;stroke-width:0.75;stroke-linecap:round;stroke-linejoin:round;stroke-miterlimit:10;stroke-dasharray:none;stroke-opacity:1"
             id="path438" /></g><g
           id="g440"
           transform="translate(310.835,314.7646)"><path
             d="M 0,0 C -1.147,-0.986 -1.991,-2.814 -2.598,-5.219"
             style="fill:none;stroke:#1a2e35;stroke-width:0.75;stroke-linecap:round;stroke-linejoin:round;stroke-miterlimit:10;stroke-dasharray:none;stroke-opacity:1"
             id="path442" /></g><g
           id="g444"
           transform="translate(260.7646,320.7026)"><path
             d="m 0,0 c 0,0 0.625,2 4,3.125 3.375,1.125 15.053,2.927 21.062,0 6.011,-2.927 -5.5,-18.813 -5.5,-18.813 l -5.374,-7.374 -4.75,-3.563 -2.126,6.335 -2.75,2.853 c 0,0 -5.937,4.874 -5.437,9.687 C -0.375,-2.938 0,0 0,0"
             style="fill:#ffffff;fill-opacity:1;fill-rule:nonzero;stroke:none"
             id="path446" /></g><g
           id="g448"
           transform="translate(285.3105,321.3628)"><path
             d="m 0,0 c -7.938,-24.921 -14.938,-26.035 -14.938,-26.035 -2.333,9.166 -4.333,7.166 -7.5,12.894 -2.541,4.595 -1.681,10.421 -1.243,12.544 0.107,0.516 0.434,0.964 0.904,1.203 7.877,4.01 17.515,2.535 21.49,1.657 C -0.276,2.04 0.314,0.986 0,0 m 4.957,-0.246 c -0.938,3.289 -5.228,4.211 -5.228,4.211 -20.5,3.5 -24.834,-3.952 -24.834,-3.952 -4.166,-11.617 0,-20.963 0,-20.963 0,0 5.834,2.415 6.834,0 1,-2.414 2.833,-7.585 2.833,-7.585 0,0 4,2 7.167,6.166 3.166,4.167 10.614,0 10.614,0 4.78,8.334 2.614,22.123 2.614,22.123"
             style="fill:#5ae4a7;fill-opacity:1;fill-rule:nonzero;stroke:none"
             id="path450" /></g></g></g><g
       id="g452"><g
         id="g454"
         clip-path="url(#clipPath458)"><g
           id="g460"><g
             id="g462" /><g
             id="g474"><g
               clip-path="url(#clipPath466)"
               opacity="0.399994"
               id="g472"><g
                 transform="translate(285.3105,321.3628)"
                 id="g470"><path
                   d="m 0,0 c -7.938,-24.921 -14.938,-26.035 -14.938,-26.035 -2.333,9.166 -4.333,7.166 -7.5,12.894 -2.541,4.595 -1.681,10.421 -1.243,12.544 0.107,0.516 0.434,0.964 0.904,1.203 7.877,4.01 17.515,2.535 21.49,1.657 C -0.276,2.04 0.314,0.986 0,0 m 4.957,-0.246 c -0.938,3.289 -5.228,4.211 -5.228,4.211 -20.5,3.5 -24.834,-3.952 -24.834,-3.952 -4.166,-11.617 0,-20.963 0,-20.963 0,0 5.834,2.415 6.834,0 1,-2.414 2.833,-7.585 2.833,-7.585 0,0 4,2 7.167,6.166 3.166,4.167 10.614,0 10.614,0 4.78,8.334 2.614,22.123 2.614,22.123"
                   style="fill:#ffffff;fill-opacity:1;fill-rule:nonzero;stroke:none"
                   id="path468" /></g></g></g></g></g></g><g
       id="g476"><g
         id="g478"
         clip-path="url(#clipPath482)"><g
           id="g484"
           transform="translate(285.3105,321.3628)"><path
             d="m 0,0 c -7.938,-24.921 -14.938,-26.035 -14.938,-26.035 -2.333,9.166 -4.333,7.166 -7.5,12.894 -2.541,4.595 -1.681,10.421 -1.243,12.544 0.107,0.516 0.434,0.964 0.904,1.203 7.877,4.01 17.515,2.535 21.49,1.657 C -0.276,2.04 0.314,0.986 0,0 Z m 4.957,-0.246 c -0.938,3.289 -5.228,4.211 -5.228,4.211 -20.5,3.5 -24.834,-3.952 -24.834,-3.952 -4.166,-11.617 0,-20.963 0,-20.963 0,0 5.834,2.415 6.834,0 1,-2.414 2.833,-7.585 2.833,-7.585 0,0 4,2 7.167,6.166 3.166,4.167 10.614,0 10.614,0 4.78,8.334 2.614,22.123 2.614,22.123 z"
             style="fill:none;stroke:#1a2e35;stroke-width:1;stroke-linecap:round;stroke-linejoin:round;stroke-miterlimit:10;stroke-dasharray:none;stroke-opacity:1"
             id="path486" /></g><g
           id="g488"
           transform="translate(256.7988,359.1987)"><path
             d="M 0,0 C 0,0 -17.666,-3.538 -7.937,-15.029 2.854,-27.773 0,0 0,0"
             style="fill:#1a2e35;fill-opacity:1;fill-rule:nonzero;stroke:none"
             id="path490" /></g><g
           id="g492"
           transform="translate(256.7988,359.1987)"><path
             d="M 0,0 C 0,0 -17.666,-3.538 -7.937,-15.029 2.854,-27.773 0,0 0,0 Z"
             style="fill:none;stroke:#1a2e35;stroke-width:1;stroke-linecap:round;stroke-linejoin:round;stroke-miterlimit:10;stroke-dasharray:none;stroke-opacity:1"
             id="path494" /></g><g
           id="g496"
           transform="translate(249.8325,331.1611)"><path
             d="M 0,0 C 0,0 -4.2,17 3.8,25.167 11.8,33.333 20.467,35 26.967,31 33.467,27 36.133,17 35.133,11.833 34.133,6.667 34.621,-11.833 25.71,-19.5 16.8,-27.167 11.316,-25.277 5.424,-14.833 1.552,-7.971 -0.3,-6 0,0"
             style="fill:#ffffff;fill-opacity:1;fill-rule:nonzero;stroke:none"
             id="path498" /></g><g
           id="g500"
           transform="translate(249.8325,331.1611)"><path
             d="M 0,0 C 0,0 -4.2,17 3.8,25.167 11.8,33.333 20.467,35 26.967,31 33.467,27 36.133,17 35.133,11.833 34.133,6.667 34.621,-11.833 25.71,-19.5 16.8,-27.167 11.316,-25.277 5.424,-14.833 1.552,-7.971 -0.3,-6 0,0 Z"
             style="fill:none;stroke:#1a2e35;stroke-width:1;stroke-linecap:round;stroke-linejoin:round;stroke-miterlimit:10;stroke-dasharray:none;stroke-opacity:1"
             id="path502" /></g><g
           id="g504"
           transform="translate(280.7959,334.4941)"><path
             d="m 0,0 c 0,0 -6.716,6.667 -8.773,14.5 -2.057,7.833 -3.223,9.167 -10.89,5.333 -7.667,-3.833 -19.629,1.327 -16.5,11 3.289,10.167 13.333,-3 23,0.334 9.667,3.333 16.523,-2.667 16.538,-11.5 0,0 5.842,-5.667 -0.015,-20.334 z"
             style="fill:#1a2e35;fill-opacity:1;fill-rule:nonzero;stroke:none"
             id="path506" /></g><g
           id="g508"
           transform="translate(280.7959,334.4941)"><path
             d="m 0,0 c 0,0 -6.716,6.667 -8.773,14.5 -2.057,7.833 -3.223,9.167 -10.89,5.333 -7.667,-3.833 -19.629,1.327 -16.5,11 3.289,10.167 13.333,-3 23,0.334 9.667,3.333 16.523,-2.667 16.538,-11.5 0,0 5.842,-5.667 -0.015,-20.334 z"
             style="fill:none;stroke:#1a2e35;stroke-width:1;stroke-linecap:round;stroke-linejoin:round;stroke-miterlimit:10;stroke-dasharray:none;stroke-opacity:1"
             id="path510" /></g><g
           id="g512"
           transform="translate(278.6885,335.6123)"><path
             d="M 0,0 C 0,0 1.699,9.319 6.426,8.455 11.152,7.59 7.773,-6.16 2.213,-4.66"
             style="fill:#ffffff;fill-opacity:1;fill-rule:nonzero;stroke:#1a2e35;stroke-width:1;stroke-linecap:round;stroke-linejoin:round;stroke-miterlimit:10;stroke-dasharray:none;stroke-opacity:1"
             id="path514" /></g><g
           id="g516"
           transform="translate(256.2158,332.4526)"><path
             d="m 0,0 c 0,0 -1.852,-8.648 -1.25,-10.135 0.603,-1.487 6.329,-0.349 6.329,-0.349"
             style="fill:#ffffff;fill-opacity:1;fill-rule:nonzero;stroke:#1a2e35;stroke-width:1;stroke-linecap:round;stroke-linejoin:round;stroke-miterlimit:10;stroke-dasharray:none;stroke-opacity:1"
             id="path518" /></g><g
           id="g520"
           transform="translate(262.0908,318.2026)"><path
             d="M 0,0 C 0,0 4.484,-1.771 8.43,4.115"
             style="fill:#ffffff;fill-opacity:1;fill-rule:nonzero;stroke:#1a2e35;stroke-width:1;stroke-linecap:round;stroke-linejoin:round;stroke-miterlimit:10;stroke-dasharray:none;stroke-opacity:1"
             id="path522" /></g><g
           id="g524"
           transform="translate(253.1475,331.7314)"><path
             d="m 0,0 c 0.167,-0.806 -0.043,-1.531 -0.47,-1.62 -0.426,-0.088 -0.909,0.493 -1.076,1.299 -0.167,0.806 0.043,1.531 0.47,1.619 C -0.649,1.387 -0.168,0.806 0,0"
             style="fill:#1a2e35;fill-opacity:1;fill-rule:nonzero;stroke:none"
             id="path526" /></g><g
           id="g528"
           transform="translate(264.1143,332.6128)"><path
             d="m 0,0 c 0.167,-0.806 -0.043,-1.531 -0.47,-1.619 -0.426,-0.089 -0.909,0.493 -1.076,1.298 -0.167,0.806 0.043,1.531 0.47,1.62 C -0.649,1.387 -0.167,0.806 0,0"
             style="fill:#1a2e35;fill-opacity:1;fill-rule:nonzero;stroke:none"
             id="path530" /></g><g
           id="g532"
           transform="translate(255.4531,332.106)"><path
             d="m 0,0 c 0.226,-2.265 -2.051,-4.348 -5.086,-4.651 -3.035,-0.303 -5.679,1.287 -5.906,3.552 -0.226,2.266 2.159,3.266 5.194,3.569 C -2.763,2.773 -0.227,2.266 0,0 Z"
             style="fill:none;stroke:#1a2e35;stroke-width:1;stroke-linecap:round;stroke-linejoin:round;stroke-miterlimit:10;stroke-dasharray:none;stroke-opacity:1"
             id="path534" /></g><g
           id="g536"
           transform="translate(269.6045,333.521)"><path
             d="m 0,0 c 0.227,-2.266 -2.051,-4.348 -5.086,-4.651 -3.035,-0.304 -5.679,1.287 -5.905,3.552 -0.227,2.266 2.158,3.265 5.193,3.568 C -2.763,2.772 -0.227,2.265 0,0 Z"
             style="fill:none;stroke:#1a2e35;stroke-width:1;stroke-linecap:round;stroke-linejoin:round;stroke-miterlimit:10;stroke-dasharray:none;stroke-opacity:1"
             id="path538" /></g><g
           id="g540"
           transform="translate(255.4531,332.106)"><path
             d="M 0,0 3.16,0.316"
             style="fill:#ffffff;fill-opacity:1;fill-rule:nonzero;stroke:#1a2e35;stroke-width:1;stroke-linecap:round;stroke-linejoin:round;stroke-miterlimit:10;stroke-dasharray:none;stroke-opacity:1"
             id="path542" /></g><g
           id="g544"
           transform="translate(269.2158,334.6553)"><path
             d="M 0,0 11.625,6.855"
             style="fill:#ffffff;fill-opacity:1;fill-rule:nonzero;stroke:#1a2e35;stroke-width:1;stroke-linecap:round;stroke-linejoin:round;stroke-miterlimit:10;stroke-dasharray:none;stroke-opacity:1"
             id="path546" /></g><g
           id="g548"
           transform="translate(282.835,323.9927)"><path
             d="M 0,0 0.548,-1.332"
             style="fill:#ffffff;fill-opacity:1;fill-rule:nonzero;stroke:#1a2e35;stroke-width:1;stroke-linecap:round;stroke-linejoin:round;stroke-miterlimit:10;stroke-dasharray:none;stroke-opacity:1"
             id="path550" /></g><g
           id="g552"
           transform="translate(248.8989,335.7612)"><path
             d="M 0,0 C 0,0 1.77,2.253 3.943,1.168"
             style="fill:#ffffff;fill-opacity:1;fill-rule:nonzero;stroke:#1a2e35;stroke-width:1;stroke-linecap:round;stroke-linejoin:round;stroke-miterlimit:10;stroke-dasharray:none;stroke-opacity:1"
             id="path554" /></g><g
           id="g556"
           transform="translate(267.0176,336.7681)"><path
             d="M 0,0 C 0,0 -3.111,2.965 -6.104,0.885"
             style="fill:#ffffff;fill-opacity:1;fill-rule:nonzero;stroke:#1a2e35;stroke-width:1;stroke-linecap:round;stroke-linejoin:round;stroke-miterlimit:10;stroke-dasharray:none;stroke-opacity:1"
             id="path558" /></g><g
           id="g560"
           transform="translate(252.8262,364.2051)"><path
             d="m 0,0 c 4.729,-1.504 12.691,-3.34 19.196,-1.377 9.944,3 6.569,-8.196 8.819,-11.286"
             style="fill:none;stroke:#808080;stroke-width:1;stroke-linecap:round;stroke-linejoin:round;stroke-miterlimit:4;stroke-dasharray:none;stroke-opacity:1"
             id="path562" /></g><g
           id="g564"
           transform="translate(248.731,365.7026)"><path
             d="M 0,0 C 0,0 0.794,-0.35 2.139,-0.834"
             style="fill:none;stroke:#808080;stroke-width:1;stroke-linecap:round;stroke-linejoin:round;stroke-miterlimit:4;stroke-dasharray:none;stroke-opacity:1"
             id="path566" /></g><g
           id="g568"
           transform="translate(260.6777,358.6313)"><path
             d="M 0,0 C 0.53,0.162 1.085,0.351 1.663,0.567"
             style="fill:none;stroke:#808080;stroke-width:1;stroke-linecap:round;stroke-linejoin:round;stroke-miterlimit:4;stroke-dasharray:none;stroke-opacity:1"
             id="path570" /></g><g
           id="g572"
           transform="translate(249.8325,359.9526)"><path
             d="M 0,0 C 0,0 2.113,-3.276 8.942,-1.818"
             style="fill:none;stroke:#808080;stroke-width:1;stroke-linecap:round;stroke-linejoin:round;stroke-miterlimit:4;stroke-dasharray:none;stroke-opacity:1"
             id="path574" /></g><g
           id="g576"
           transform="translate(275.2266,353.54)"><path
             d="M 0,0 C 0.42,-2.845 1.497,-6.971 4.239,-10.712"
             style="fill:none;stroke:#808080;stroke-width:1;stroke-linecap:round;stroke-linejoin:round;stroke-miterlimit:4;stroke-dasharray:none;stroke-opacity:1"
             id="path578" /></g><g
           id="g580"
           transform="translate(274.9658,357.0776)"><path
             d="M 0,0 C 0,0 -0.025,-0.672 0.062,-1.789"
             style="fill:none;stroke:#808080;stroke-width:1;stroke-linecap:round;stroke-linejoin:round;stroke-miterlimit:4;stroke-dasharray:none;stroke-opacity:1"
             id="path582" /></g><g
           id="g584"><g
             id="g586" /><g
             id="g598"><g
               clip-path="url(#clipPath590)"
               opacity="0.300003"
               id="g596"><g
                 transform="translate(283.8604,249.8042)"
                 id="g594"><path
                   d="m 0,0 c -0.805,-0.72 -0.337,-2.048 0.743,-2.054 6.752,-0.031 24.971,-0.076 32.036,0.327 8.75,0.5 2.072,10.021 -4.964,6.386 C 21.331,1.308 7.691,6.886 0,0"
                   style="fill:#000000;fill-opacity:1;fill-rule:nonzero;stroke:none"
                   id="path592" /></g></g></g></g><g
           id="g600"
           transform="translate(207.7109,259.1787)"><path
             d="M 0,0 C 0,0 4.087,10.89 14.346,9.161 24.709,7.415 16.764,-1.156 11.832,-1.923 11.832,-1.923 11.083,1.067 0,0"
             style="fill:#ffffff;fill-opacity:1;fill-rule:nonzero;stroke:none"
             id="path602" /></g><g
           id="g604"
           transform="translate(207.7109,259.1787)"><path
             d="M 0,0 C 0,0 4.087,10.89 14.346,9.161 24.709,7.415 16.764,-1.156 11.832,-1.923 11.832,-1.923 11.083,1.067 0,0 Z"
             style="fill:none;stroke:#1a2e35;stroke-width:1;stroke-linecap:round;stroke-linejoin:round;stroke-miterlimit:10;stroke-dasharray:none;stroke-opacity:1"
             id="path606" /></g><g
           id="g608"
           transform="translate(199.0229,253)"><path
             d="M 0,0 C -1.354,-1.354 -4.601,-1.47 -2.417,1.463 0,4.708 2.724,5.796 4.583,6.626 9.45,8.798 11.347,8.363 15.75,9.328 20.153,10.292 20.976,8.502 22.5,7.667 26.128,5.678 27,5.333 27.917,3.333 28.833,1.333 29.833,-1.27 27,-1.27 24.417,-1.27 24.25,3 21.75,2.833 19.25,2.667 18,-1.27 16.25,-1.27 h -0.667 c -1.5,0 -1.581,1.248 -0.663,3.209 0.918,1.962 1.913,3.728 1.913,3.728 0,0 -2.174,-0.99 -3.375,-3.542 -1.2,-2.552 -1.421,-3.627 -3.627,-3.627 -2.206,0 -2.054,1.639 0.141,5.258 0,0 -1.977,-1.086 -3.058,-3.129 C 5.833,-1.417 5.27,-1.27 3.853,-1.27 2,-1.27 2.125,1.792 5.417,3.792 5.417,3.792 4.687,4.687 0,0"
             style="fill:#ffffff;fill-opacity:1;fill-rule:nonzero;stroke:none"
             id="path610" /></g><g
           id="g612"
           transform="translate(199.0229,253)"><path
             d="M 0,0 C -1.354,-1.354 -4.601,-1.47 -2.417,1.463 0,4.708 2.724,5.796 4.583,6.626 9.45,8.798 11.347,8.363 15.75,9.328 20.153,10.292 20.976,8.502 22.5,7.667 26.128,5.678 27,5.333 27.917,3.333 28.833,1.333 29.833,-1.27 27,-1.27 24.417,-1.27 24.25,3 21.75,2.833 19.25,2.667 18,-1.27 16.25,-1.27 h -0.667 c -1.5,0 -1.581,1.248 -0.663,3.209 0.918,1.962 1.913,3.728 1.913,3.728 0,0 -2.174,-0.99 -3.375,-3.542 -1.2,-2.552 -1.421,-3.627 -3.627,-3.627 -2.206,0 -2.054,1.639 0.141,5.258 0,0 -1.977,-1.086 -3.058,-3.129 C 5.833,-1.417 5.27,-1.27 3.853,-1.27 2,-1.27 2.125,1.792 5.417,3.792 5.417,3.792 4.687,4.687 0,0 Z"
             style="fill:none;stroke:#1a2e35;stroke-width:1;stroke-linecap:round;stroke-linejoin:round;stroke-miterlimit:10;stroke-dasharray:none;stroke-opacity:1"
             id="path614" /></g><g
           id="g616"
           transform="translate(211.8794,260.3125)"><path
             d="M 0,0 C 0,0 -1.294,0.062 -2.106,-2.125"
             style="fill:#ffffff;fill-opacity:1;fill-rule:nonzero;stroke:#1a2e35;stroke-width:0.75;stroke-linecap:round;stroke-linejoin:round;stroke-miterlimit:10;stroke-dasharray:none;stroke-opacity:1"
             id="path618" /></g></g></g><g
       id="g620"><g
         id="g622"
         clip-path="url(#clipPath626)"><g
           id="g628"
           transform="translate(376.1973,354.4634)"><path
             d="M 0,0 C 6.379,-5.014 12.528,-10.46 18.408,-16.34"
             style="fill:none;stroke:#1a2e35;stroke-width:0.75;stroke-linecap:round;stroke-linejoin:round;stroke-miterlimit:10;stroke-dasharray:none;stroke-opacity:1"
             id="path630" /></g><g
           id="g632"
           transform="translate(369.2197,359.7104)"><path
             d="M 0,0 C 1.223,-0.879 2.438,-1.773 3.645,-2.682"
             style="fill:none;stroke:#1a2e35;stroke-width:0.75;stroke-linecap:round;stroke-linejoin:round;stroke-miterlimit:10;stroke-dasharray:none;stroke-opacity:1"
             id="path634" /></g><g
           id="g636"
           transform="translate(362.251,364.5044)"><path
             d="M 0,0 C 1.254,-0.825 2.501,-1.665 3.74,-2.52"
             style="fill:none;stroke:#1a2e35;stroke-width:0.75;stroke-linecap:round;stroke-linejoin:round;stroke-miterlimit:10;stroke-dasharray:none;stroke-opacity:1"
             id="path638" /></g><g
           id="g640"
           transform="translate(311.0928,388.7051)"><path
             d="M 0,0 C 16.354,-5.097 32.195,-12.296 47.098,-21.599"
             style="fill:none;stroke:#1a2e35;stroke-width:0.75;stroke-linecap:round;stroke-linejoin:round;stroke-miterlimit:10;stroke-dasharray:none;stroke-opacity:1"
             id="path642" /></g><g
           id="g644"
           transform="translate(300.168,391.7788)"><path
             d="M 0,0 C 2.025,-0.509 4.044,-1.05 6.057,-1.623"
             style="fill:none;stroke:#1a2e35;stroke-width:0.75;stroke-linecap:round;stroke-linejoin:round;stroke-miterlimit:10;stroke-dasharray:none;stroke-opacity:1"
             id="path646" /></g><g
           id="g648"
           transform="translate(288.9346,394.271)"><path
             d="M 0,0 C 2.198,-0.423 4.39,-0.883 6.575,-1.378"
             style="fill:none;stroke:#1a2e35;stroke-width:0.75;stroke-linecap:round;stroke-linejoin:round;stroke-miterlimit:10;stroke-dasharray:none;stroke-opacity:1"
             id="path650" /></g><g
           id="g652"
           transform="translate(278.9219,395.9424)"><path
             d="M 0,0 C 1.896,-0.269 3.788,-0.563 5.678,-0.885"
             style="fill:none;stroke:#1a2e35;stroke-width:0.75;stroke-linecap:round;stroke-linejoin:round;stroke-miterlimit:10;stroke-dasharray:none;stroke-opacity:1"
             id="path654" /></g><g
           id="g656"
           transform="translate(218.6094,395.5396)"><path
             d="M 0,0 C 18.537,2.878 37.393,3.2 56.001,0.967"
             style="fill:none;stroke:#1a2e35;stroke-width:0.75;stroke-linecap:round;stroke-linejoin:round;stroke-miterlimit:10;stroke-dasharray:none;stroke-opacity:1"
             id="path658" /></g><g
           id="g660"
           transform="translate(210.3584,394.0854)"><path
             d="M 0,0 C 1.702,0.336 3.407,0.65 5.116,0.942"
             style="fill:none;stroke:#1a2e35;stroke-width:0.75;stroke-linecap:round;stroke-linejoin:round;stroke-miterlimit:10;stroke-dasharray:none;stroke-opacity:1"
             id="path662" /></g><g
           id="g664"
           transform="translate(202.354,392.3379)"><path
             d="M 0,0 C 1.703,0.408 3.41,0.793 5.121,1.157"
             style="fill:none;stroke:#1a2e35;stroke-width:0.75;stroke-linecap:round;stroke-linejoin:round;stroke-miterlimit:10;stroke-dasharray:none;stroke-opacity:1"
             id="path666" /></g><g
           id="g668"
           transform="translate(192.5093,389.7197)"><path
             d="M 0,0 C 1.737,0.509 3.48,0.994 5.228,1.456"
             style="fill:none;stroke:#1a2e35;stroke-width:0.75;stroke-linecap:round;stroke-linejoin:round;stroke-miterlimit:10;stroke-dasharray:none;stroke-opacity:1"
             id="path670" /></g><g
           id="g672"
           transform="translate(132.9995,361.1123)"><path
             d="M 0,0 C 16.838,11.805 35.059,20.774 53.998,26.908"
             style="fill:none;stroke:#1a2e35;stroke-width:0.75;stroke-linecap:round;stroke-linejoin:round;stroke-miterlimit:10;stroke-dasharray:none;stroke-opacity:1"
             id="path674" /></g><g
           id="g676"
           transform="translate(124.9595,355.1763)"><path
             d="M 0,0 C 1.564,1.215 3.143,2.405 4.733,3.568"
             style="fill:none;stroke:#1a2e35;stroke-width:0.75;stroke-linecap:round;stroke-linejoin:round;stroke-miterlimit:10;stroke-dasharray:none;stroke-opacity:1"
             id="path678" /></g><g
           id="g680"
           transform="translate(116.8979,348.5786)"><path
             d="M 0,0 C 1.714,1.477 3.448,2.921 5.199,4.333"
             style="fill:none;stroke:#1a2e35;stroke-width:0.75;stroke-linecap:round;stroke-linejoin:round;stroke-miterlimit:10;stroke-dasharray:none;stroke-opacity:1"
             id="path682" /></g><g
           id="g684"
           transform="translate(105.6392,338.1235)"><path
             d="M 0,0 C 2.346,2.346 4.735,4.623 7.164,6.831"
             style="fill:none;stroke:#1a2e35;stroke-width:0.75;stroke-linecap:round;stroke-linejoin:round;stroke-miterlimit:10;stroke-dasharray:none;stroke-opacity:1"
             id="path686" /></g><g
           id="g688"
           transform="translate(183.8408,374.6533)"><path
             d="m 0,0 c 0,-13.739 -11.138,-24.877 -24.877,-24.877 -13.74,0 -24.878,11.138 -24.878,24.877 0,13.74 11.138,24.877 24.878,24.877 C -11.138,24.877 0,13.74 0,0"
             style="fill:#5ae4a7;fill-opacity:1;fill-rule:nonzero;stroke:none"
             id="path690" /></g></g></g><g
       id="g692"><g
         id="g694"
         clip-path="url(#clipPath698)"><g
           id="g700"><g
             id="g702" /><g
             id="g714"><g
               clip-path="url(#clipPath706)"
               opacity="0.300003"
               id="g712"><g
                 transform="translate(183.8408,374.6533)"
                 id="g710"><path
                   d="m 0,0 c 0,-13.739 -11.138,-24.877 -24.877,-24.877 -13.74,0 -24.878,11.138 -24.878,24.877 0,13.74 11.138,24.877 24.878,24.877 C -11.138,24.877 0,13.74 0,0"
                   style="fill:#ffffff;fill-opacity:1;fill-rule:nonzero;stroke:none"
                   id="path708" /></g></g></g></g></g></g><g
       id="g716"><g
         id="g718"
         clip-path="url(#clipPath722)"><g
           id="g724"
           transform="translate(183.8408,374.6533)"><path
             d="m 0,0 c 0,-13.739 -11.138,-24.877 -24.877,-24.877 -13.74,0 -24.878,11.138 -24.878,24.877 0,13.74 11.138,24.877 24.878,24.877 C -11.138,24.877 0,13.74 0,0 Z"
             style="fill:none;stroke:#1a2e35;stroke-width:0.75;stroke-linecap:round;stroke-linejoin:round;stroke-miterlimit:10;stroke-dasharray:none;stroke-opacity:1"
             id="path726" /></g><g
           id="g728"
           transform="translate(147.0415,364.8691)"><path
             d="m 0,0 v 6.23 c 0,1.557 -0.44,2.031 -2.132,2.031 v 3.046 C -0.44,11.307 0,11.781 0,13.339 v 6.228 c 0,2.574 1.659,3.759 3.758,3.759 H 5.654 V 20.278 H 5.112 c -1.185,0 -1.795,-0.541 -1.795,-2.403 v -5.078 c 0,-1.218 -0.439,-2.505 -2.064,-2.98 V 9.75 C 2.878,9.276 3.317,7.99 3.317,6.771 V 1.692 c 0,-1.861 0.61,-2.402 1.795,-2.402 H 5.654 V -3.757 H 3.758 C 1.659,-3.757 0,-2.572 0,0"
             style="fill:#ffffff;fill-opacity:1;fill-rule:nonzero;stroke:none"
             id="path730" /></g><g
           id="g732"
           transform="translate(147.0415,364.8691)"><path
             d="m 0,0 v 6.23 c 0,1.557 -0.44,2.031 -2.132,2.031 v 3.046 C -0.44,11.307 0,11.781 0,13.339 v 6.228 c 0,2.574 1.659,3.759 3.758,3.759 H 5.654 V 20.278 H 5.112 c -1.185,0 -1.795,-0.541 -1.795,-2.403 v -5.078 c 0,-1.218 -0.439,-2.505 -2.064,-2.98 V 9.75 C 2.878,9.276 3.317,7.99 3.317,6.771 V 1.692 c 0,-1.861 0.61,-2.402 1.795,-2.402 H 5.654 V -3.757 H 3.758 C 1.659,-3.757 0,-2.572 0,0 Z"
             style="fill:none;stroke:#1a2e35;stroke-width:0.75;stroke-linecap:round;stroke-linejoin:round;stroke-miterlimit:10;stroke-dasharray:none;stroke-opacity:1"
             id="path734" /></g><g
           id="g736"
           transform="translate(165.2319,364.1592)"><path
             d="m 0,0 h 0.542 c 1.185,0 1.794,0.541 1.794,2.402 v 5.079 c 0,1.219 0.44,2.505 2.065,2.979 v 0.067 c -1.625,0.474 -2.065,1.762 -2.065,2.98 v 5.078 c 0,1.862 -0.609,2.403 -1.794,2.403 H 0 v 3.048 h 1.896 c 2.098,0 3.758,-1.185 3.758,-3.759 v -6.228 c 0,-1.558 0.439,-2.032 2.132,-2.032 V 8.971 C 6.093,8.971 5.654,8.497 5.654,6.94 V 0.71 c 0,-2.572 -1.66,-3.757 -3.758,-3.757 H 0 Z"
             style="fill:#ffffff;fill-opacity:1;fill-rule:nonzero;stroke:none"
             id="path738" /></g><g
           id="g740"
           transform="translate(165.2319,364.1592)"><path
             d="m 0,0 h 0.542 c 1.185,0 1.794,0.541 1.794,2.402 v 5.079 c 0,1.219 0.44,2.505 2.065,2.979 v 0.067 c -1.625,0.474 -2.065,1.762 -2.065,2.98 v 5.078 c 0,1.862 -0.609,2.403 -1.794,2.403 H 0 v 3.048 h 1.896 c 2.098,0 3.758,-1.185 3.758,-3.759 v -6.228 c 0,-1.558 0.439,-2.032 2.132,-2.032 V 8.971 C 6.093,8.971 5.654,8.497 5.654,6.94 V 0.71 c 0,-2.572 -1.66,-3.757 -3.758,-3.757 H 0 Z"
             style="fill:none;stroke:#1a2e35;stroke-width:0.75;stroke-linecap:round;stroke-linejoin:round;stroke-miterlimit:10;stroke-dasharray:none;stroke-opacity:1"
             id="path742" /></g><g
           id="g744"
           transform="translate(110.7583,304.6206)"><path
             d="m 0,0 h -14.353 c -6.604,0 -11.958,5.354 -11.958,11.958 v 14.353 c 0,6.604 5.354,11.958 11.958,11.958 H 0 c 6.604,0 11.958,-5.354 11.958,-11.958 V 11.958 C 11.958,5.354 6.604,0 0,0"
             style="fill:#5ae4a7;fill-opacity:1;fill-rule:nonzero;stroke:none"
             id="path746" /></g><g
           id="g748"
           transform="translate(110.7583,304.6206)"><path
             d="m 0,0 h -14.353 c -6.604,0 -11.958,5.354 -11.958,11.958 v 14.353 c 0,6.604 5.354,11.958 11.958,11.958 H 0 c 6.604,0 11.958,-5.354 11.958,-11.958 V 11.958 C 11.958,5.354 6.604,0 0,0 Z"
             style="fill:none;stroke:#1a2e35;stroke-width:0.75;stroke-linecap:round;stroke-linejoin:round;stroke-miterlimit:10;stroke-dasharray:none;stroke-opacity:1"
             id="path750" /></g><g
           id="g752"
           transform="translate(89.7144,322.8296)"><path
             d="m 0,0 v 1.85 l 7.651,3.3 v -2 L 2.375,0.925 7.651,-1.3 v -2 z"
             style="fill:#ffffff;fill-opacity:1;fill-rule:nonzero;stroke:none"
             id="path754" /></g><g
           id="g756"
           transform="translate(89.7144,322.8296)"><path
             d="m 0,0 v 1.85 l 7.651,3.3 v -2 L 2.375,0.925 7.651,-1.3 v -2 z"
             style="fill:none;stroke:#1a2e35;stroke-width:0.75;stroke-linecap:round;stroke-linejoin:round;stroke-miterlimit:10;stroke-dasharray:none;stroke-opacity:1"
             id="path758" /></g><g
           id="g760"
           transform="translate(105.8442,332.5049)"><path
             d="m 0,0 h 2.375 l -6.9,-17.5 h -2.374 z"
             style="fill:#ffffff;fill-opacity:1;fill-rule:nonzero;stroke:none"
             id="path762" /></g><g
           id="g764"
           transform="translate(105.8442,332.5049)"><path
             d="m 0,0 h 2.375 l -6.9,-17.5 h -2.374 z"
             style="fill:none;stroke:#1a2e35;stroke-width:0.75;stroke-linecap:round;stroke-linejoin:round;stroke-miterlimit:10;stroke-dasharray:none;stroke-opacity:1"
             id="path766" /></g><g
           id="g768"
           transform="translate(109.7993,321.5298)"><path
             d="M 0,0 5.275,2.225 0,4.45 v 2 L 7.65,3.15 V 1.3 L 0,-2 Z"
             style="fill:#ffffff;fill-opacity:1;fill-rule:nonzero;stroke:none"
             id="path770" /></g><g
           id="g772"
           transform="translate(109.7993,321.5298)"><path
             d="M 0,0 5.275,2.225 0,4.45 v 2 L 7.65,3.15 V 1.3 L 0,-2 Z"
             style="fill:none;stroke:#1a2e35;stroke-width:0.75;stroke-linecap:round;stroke-linejoin:round;stroke-miterlimit:10;stroke-dasharray:none;stroke-opacity:1"
             id="path774" /></g><g
           id="g776"
           transform="translate(356.6943,380.2822)"><path
             d="m 0,0 c 0,-11.727 -9.507,-21.234 -21.233,-21.234 -11.728,0 -21.235,9.507 -21.235,21.234 0,11.728 9.507,21.234 21.235,21.234 C -9.507,21.234 0,11.728 0,0"
             style="fill:#5ae4a7;fill-opacity:1;fill-rule:nonzero;stroke:none"
             id="path778" /></g></g></g><g
       id="g780"><g
         id="g782"
         clip-path="url(#clipPath786)"><g
           id="g788"><g
             id="g790" /><g
             id="g802"><g
               clip-path="url(#clipPath794)"
               opacity="0.199997"
               id="g800"><g
                 transform="translate(356.6943,380.2822)"
                 id="g798"><path
                   d="m 0,0 c 0,-11.727 -9.507,-21.234 -21.233,-21.234 -11.728,0 -21.235,9.507 -21.235,21.234 0,11.728 9.507,21.234 21.235,21.234 C -9.507,21.234 0,11.728 0,0"
                   style="fill:#000000;fill-opacity:1;fill-rule:nonzero;stroke:none"
                   id="path796" /></g></g></g></g></g></g><g
       id="g804"><g
         id="g806"
         clip-path="url(#clipPath810)"><g
           id="g812"
           transform="translate(356.6943,380.2822)"><path
             d="m 0,0 c 0,-11.727 -9.507,-21.234 -21.233,-21.234 -11.728,0 -21.235,9.507 -21.235,21.234 0,11.728 9.507,21.234 21.235,21.234 C -9.507,21.234 0,11.728 0,0 Z"
             style="fill:none;stroke:#1a2e35;stroke-width:0.75;stroke-linecap:round;stroke-linejoin:round;stroke-miterlimit:10;stroke-dasharray:none;stroke-opacity:1"
             id="path814" /></g><g
           id="g816"
           transform="translate(322.332,375.8848)"><path
             d="m 0,0 v 8.796 c 0,2.526 1.311,4.023 3.79,4.023 2.48,0 3.789,-1.497 3.789,-4.023 V 7.065 H 5.147 V 8.96 c 0,1.075 -0.515,1.52 -1.287,1.52 -0.772,0 -1.286,-0.445 -1.286,-1.52 v -9.147 c 0,-1.076 0.514,-1.497 1.286,-1.497 0.772,0 1.287,0.421 1.287,1.497 V 2.316 H 7.579 V 0 C 7.579,-2.527 6.27,-4.024 3.79,-4.024 1.311,-4.024 0,-2.527 0,0"
             style="fill:#ffffff;fill-opacity:1;fill-rule:nonzero;stroke:none"
             id="path818" /></g><g
           id="g820"
           transform="translate(322.332,375.8848)"><path
             d="m 0,0 v 8.796 c 0,2.526 1.311,4.023 3.79,4.023 2.48,0 3.789,-1.497 3.789,-4.023 V 7.065 H 5.147 V 8.96 c 0,1.075 -0.515,1.52 -1.287,1.52 -0.772,0 -1.286,-0.445 -1.286,-1.52 v -9.147 c 0,-1.076 0.514,-1.497 1.286,-1.497 0.772,0 1.287,0.421 1.287,1.497 V 2.316 H 7.579 V 0 C 7.579,-2.527 6.27,-4.024 3.79,-4.024 1.311,-4.024 0,-2.527 0,0 Z"
             style="fill:none;stroke:#1a2e35;stroke-width:0.75;stroke-linecap:round;stroke-linejoin:round;stroke-miterlimit:10;stroke-dasharray:none;stroke-opacity:1"
             id="path822" /></g><g
           id="g824"
           transform="translate(334.2676,379.3706)"><path
             d="M 0,0 H -3.135 V 1.825 H 0 V 4.983 H 1.824 V 1.825 H 4.959 V 0 H 1.824 V -3.205 H 0 Z"
             style="fill:#ffffff;fill-opacity:1;fill-rule:nonzero;stroke:none"
             id="path826" /></g><g
           id="g828"
           transform="translate(334.2676,379.3706)"><path
             d="M 0,0 H -3.135 V 1.825 H 0 V 4.983 H 1.824 V 1.825 H 4.959 V 0 H 1.824 V -3.205 H 0 Z"
             style="fill:none;stroke:#1a2e35;stroke-width:0.75;stroke-linecap:round;stroke-linejoin:round;stroke-miterlimit:10;stroke-dasharray:none;stroke-opacity:1"
             id="path830" /></g><g
           id="g832"
           transform="translate(343.6299,379.3706)"><path
             d="M 0,0 H -3.136 V 1.825 H 0 V 4.983 H 1.823 V 1.825 H 4.959 V 0 H 1.823 V -3.205 H 0 Z"
             style="fill:#ffffff;fill-opacity:1;fill-rule:nonzero;stroke:none"
             id="path834" /></g><g
           id="g836"
           transform="translate(343.6299,379.3706)"><path
             d="M 0,0 H -3.136 V 1.825 H 0 V 4.983 H 1.823 V 1.825 H 4.959 V 0 H 1.823 V -3.205 H 0 Z"
             style="fill:none;stroke:#1a2e35;stroke-width:0.75;stroke-linecap:round;stroke-linejoin:round;stroke-miterlimit:10;stroke-dasharray:none;stroke-opacity:1"
             id="path838" /></g><g
           id="g840"
           transform="translate(254.0674,375.375)"><path
             d="m 0,0 h -19.187 c -7.51,0 -13.599,6.089 -13.599,13.6 v 19.186 c 0,7.511 6.089,13.6 13.599,13.6 H 0 c 7.511,0 13.6,-6.089 13.6,-13.6 V 13.6 C 13.6,6.089 7.511,0 0,0"
             style="fill:#5ae4a7;fill-opacity:1;fill-rule:nonzero;stroke:none"
             id="path842" /></g><g
           id="g844"
           transform="translate(254.0674,375.375)"><path
             d="m 0,0 h -19.187 c -7.51,0 -13.599,6.089 -13.599,13.6 v 19.186 c 0,7.511 6.089,13.6 13.599,13.6 H 0 c 7.511,0 13.6,-6.089 13.6,-13.6 V 13.6 C 13.6,6.089 7.511,0 0,0 Z"
             style="fill:none;stroke:#1a2e35;stroke-width:0.75;stroke-linecap:round;stroke-linejoin:round;stroke-miterlimit:10;stroke-dasharray:none;stroke-opacity:1"
             id="path846" /></g><g
           id="g848"
           transform="translate(230.5308,393.6841)"><path
             d="m 0,0 v 9.769 c 0,2.805 1.456,4.468 4.208,4.468 2.755,0 4.209,-1.663 4.209,-4.468 V 7.846 H 5.716 v 2.105 c 0,1.194 -0.572,1.688 -1.429,1.688 -0.858,0 -1.429,-0.494 -1.429,-1.688 V -0.208 c 0,-1.195 0.571,-1.662 1.429,-1.662 0.857,0 1.429,0.467 1.429,1.662 v 2.78 H 8.417 V 0 C 8.417,-2.806 6.963,-4.469 4.208,-4.469 1.456,-4.469 0,-2.806 0,0"
             style="fill:#ffffff;fill-opacity:1;fill-rule:nonzero;stroke:none"
             id="path850" /></g><g
           id="g852"
           transform="translate(230.5308,393.6841)"><path
             d="m 0,0 v 9.769 c 0,2.805 1.456,4.468 4.208,4.468 2.755,0 4.209,-1.663 4.209,-4.468 V 7.846 H 5.716 v 2.105 c 0,1.194 -0.572,1.688 -1.429,1.688 -0.858,0 -1.429,-0.494 -1.429,-1.688 V -0.208 c 0,-1.195 0.571,-1.662 1.429,-1.662 0.857,0 1.429,0.467 1.429,1.662 v 2.78 H 8.417 V 0 C 8.417,-2.806 6.963,-4.469 4.208,-4.469 1.456,-4.469 0,-2.806 0,0 Z"
             style="fill:none;stroke:#1a2e35;stroke-width:0.75;stroke-linecap:round;stroke-linejoin:round;stroke-miterlimit:10;stroke-dasharray:none;stroke-opacity:1"
             id="path854" /></g><g
           id="g856"
           transform="translate(240.2261,393.7876)"><path
             d="m 0,0 v 1.04 h 2.702 v -1.248 c 0,-1.298 0.571,-1.766 1.481,-1.766 0.91,0 1.481,0.468 1.481,1.819 0,1.507 -0.571,2.467 -2.442,4.105 -2.391,2.103 -3.17,3.585 -3.17,5.663 0,2.858 1.482,4.52 4.261,4.52 2.78,0 4.157,-1.662 4.157,-4.572 V 8.808 H 5.768 v 0.935 c 0,1.299 -0.52,1.793 -1.43,1.793 C 3.43,11.536 2.91,11.042 2.91,9.795 2.91,8.47 3.507,7.509 5.378,5.873 7.769,3.768 8.522,2.312 8.522,0.053 8.522,-2.91 7.015,-4.573 4.208,-4.573 1.403,-4.573 0,-2.91 0,0"
             style="fill:#ffffff;fill-opacity:1;fill-rule:nonzero;stroke:none"
             id="path858" /></g><g
           id="g860"
           transform="translate(240.2261,393.7876)"><path
             d="m 0,0 v 1.04 h 2.702 v -1.248 c 0,-1.298 0.571,-1.766 1.481,-1.766 0.91,0 1.481,0.468 1.481,1.819 0,1.507 -0.571,2.467 -2.442,4.105 -2.391,2.103 -3.17,3.585 -3.17,5.663 0,2.858 1.482,4.52 4.261,4.52 2.78,0 4.157,-1.662 4.157,-4.572 V 8.808 H 5.768 v 0.935 c 0,1.299 -0.52,1.793 -1.43,1.793 C 3.43,11.536 2.91,11.042 2.91,9.795 2.91,8.47 3.507,7.509 5.378,5.873 7.769,3.768 8.522,2.312 8.522,0.053 8.522,-2.91 7.015,-4.573 4.208,-4.573 1.403,-4.573 0,-2.91 0,0 Z"
             style="fill:none;stroke:#1a2e35;stroke-width:0.75;stroke-linecap:round;stroke-linejoin:round;stroke-miterlimit:10;stroke-dasharray:none;stroke-opacity:1"
             id="path862" /></g><g
           id="g864"
           transform="translate(249.8955,393.7876)"><path
             d="m 0,0 v 1.04 h 2.703 v -1.248 c 0,-1.298 0.57,-1.766 1.481,-1.766 0.909,0 1.48,0.468 1.48,1.819 0,1.507 -0.571,2.467 -2.442,4.105 -2.39,2.103 -3.17,3.585 -3.17,5.663 0,2.858 1.482,4.52 4.261,4.52 2.781,0 4.158,-1.662 4.158,-4.572 V 8.808 H 5.768 v 0.935 c 0,1.299 -0.519,1.793 -1.429,1.793 C 3.431,11.536 2.91,11.042 2.91,9.795 2.91,8.47 3.508,7.509 5.379,5.873 7.77,3.768 8.522,2.312 8.522,0.053 8.522,-2.91 7.015,-4.573 4.209,-4.573 1.403,-4.573 0,-2.91 0,0"
             style="fill:#ffffff;fill-opacity:1;fill-rule:nonzero;stroke:none"
             id="path866" /></g><g
           id="g868"
           transform="translate(249.8955,393.7876)"><path
             d="m 0,0 v 1.04 h 2.703 v -1.248 c 0,-1.298 0.57,-1.766 1.481,-1.766 0.909,0 1.48,0.468 1.48,1.819 0,1.507 -0.571,2.467 -2.442,4.105 -2.39,2.103 -3.17,3.585 -3.17,5.663 0,2.858 1.482,4.52 4.261,4.52 2.781,0 4.158,-1.662 4.158,-4.572 V 8.808 H 5.768 v 0.935 c 0,1.299 -0.519,1.793 -1.429,1.793 C 3.431,11.536 2.91,11.042 2.91,9.795 2.91,8.47 3.508,7.509 5.379,5.873 7.77,3.768 8.522,2.312 8.522,0.053 8.522,-2.91 7.015,-4.573 4.209,-4.573 1.403,-4.573 0,-2.91 0,0 Z"
             style="fill:none;stroke:#1a2e35;stroke-width:0.75;stroke-linecap:round;stroke-linejoin:round;stroke-miterlimit:10;stroke-dasharray:none;stroke-opacity:1"
             id="path870" /></g><g
           id="g872"
           transform="translate(412.7754,335.3735)"><path
             d="m 0,0 c 0,-11.697 -9.481,-21.179 -21.179,-21.179 -11.697,0 -21.178,9.482 -21.178,21.179 0,11.697 9.481,21.179 21.178,21.179 C -9.481,21.179 0,11.697 0,0"
             style="fill:#5ae4a7;fill-opacity:1;fill-rule:nonzero;stroke:none"
             id="path874" /></g></g></g><g
       id="g876"><g
         id="g878"
         clip-path="url(#clipPath882)"><g
           id="g884"><g
             id="g886" /><g
             id="g898"><g
               clip-path="url(#clipPath890)"
               opacity="0.300003"
               id="g896"><g
                 transform="translate(412.7754,335.3735)"
                 id="g894"><path
                   d="m 0,0 c 0,-11.697 -9.481,-21.179 -21.179,-21.179 -11.697,0 -21.178,9.482 -21.178,21.179 0,11.697 9.481,21.179 21.178,21.179 C -9.481,21.179 0,11.697 0,0"
                   style="fill:#ffffff;fill-opacity:1;fill-rule:nonzero;stroke:none"
                   id="path892" /></g></g></g></g></g></g><g
       id="g900"><g
         id="g902"
         clip-path="url(#clipPath906)"><g
           id="g908"
           transform="translate(412.7754,335.3735)"><path
             d="m 0,0 c 0,-11.697 -9.481,-21.179 -21.179,-21.179 -11.697,0 -21.178,9.482 -21.178,21.179 0,11.697 9.481,21.179 21.178,21.179 C -9.481,21.179 0,11.697 0,0 Z"
             style="fill:none;stroke:#1a2e35;stroke-width:0.75;stroke-linecap:round;stroke-linejoin:round;stroke-miterlimit:10;stroke-dasharray:none;stroke-opacity:1"
             id="path910" /></g><g
           id="g912"
           transform="translate(383.2676,331.1709)"><path
             d="m 0,0 v 8.406 c 0,2.413 1.252,3.844 3.621,3.844 2.37,0 3.621,-1.431 3.621,-3.844 V 6.751 H 4.918 v 1.812 c 0,1.027 -0.492,1.452 -1.23,1.452 -0.738,0 -1.229,-0.425 -1.229,-1.452 v -8.741 c 0,-1.029 0.491,-1.431 1.229,-1.431 0.738,0 1.23,0.402 1.23,1.431 V 2.213 H 7.242 V 0 C 7.242,-2.415 5.991,-3.845 3.621,-3.845 1.252,-3.845 0,-2.415 0,0"
             style="fill:#ffffff;fill-opacity:1;fill-rule:nonzero;stroke:none"
             id="path914" /></g><g
           id="g916"
           transform="translate(383.2676,331.1709)"><path
             d="m 0,0 v 8.406 c 0,2.413 1.252,3.844 3.621,3.844 2.37,0 3.621,-1.431 3.621,-3.844 V 6.751 H 4.918 v 1.812 c 0,1.027 -0.492,1.452 -1.23,1.452 -0.738,0 -1.229,-0.425 -1.229,-1.452 v -8.741 c 0,-1.029 0.491,-1.431 1.229,-1.431 0.738,0 1.23,0.402 1.23,1.431 V 2.213 H 7.242 V 0 C 7.242,-2.415 5.991,-3.845 3.621,-3.845 1.252,-3.845 0,-2.415 0,0 Z"
             style="fill:none;stroke:#1a2e35;stroke-width:0.75;stroke-linecap:round;stroke-linejoin:round;stroke-miterlimit:10;stroke-dasharray:none;stroke-opacity:1"
             id="path918" /></g><g
           id="g920"
           transform="translate(396.2373,333.7637)"><path
             d="M 0,0 0.425,4.091 H -1.162 L -1.587,0 Z M -3.711,-1.744 H -4.807 L -4.627,0 h 1.095 l 0.425,4.091 h -1.118 l 0.179,1.744 h 1.117 l 0.381,3.6 h 1.944 l -0.379,-3.6 h 1.587 l 0.379,3.6 h 1.946 l -0.381,-3.6 h 1.14 L 3.51,4.091 H 2.37 L 1.945,0 h 1.14 L 2.906,-1.744 h -1.14 l -0.469,-4.47 h -1.945 l 0.468,4.47 h -1.586 l -0.469,-4.47 H -4.18 Z"
             style="fill:#ffffff;fill-opacity:1;fill-rule:nonzero;stroke:none"
             id="path922" /></g><g
           id="g924"
           transform="translate(396.2373,333.7637)"><path
             d="M 0,0 0.425,4.091 H -1.162 L -1.587,0 Z M -3.711,-1.744 H -4.807 L -4.627,0 h 1.095 l 0.425,4.091 h -1.118 l 0.179,1.744 h 1.117 l 0.381,3.6 h 1.944 l -0.379,-3.6 h 1.587 l 0.379,3.6 h 1.946 l -0.381,-3.6 h 1.14 L 3.51,4.091 H 2.37 L 1.945,0 h 1.14 L 2.906,-1.744 h -1.14 l -0.469,-4.47 h -1.945 l 0.468,4.47 h -1.586 l -0.469,-4.47 H -4.18 Z"
             style="fill:none;stroke:#1a2e35;stroke-width:0.75;stroke-linecap:round;stroke-linejoin:round;stroke-miterlimit:10;stroke-dasharray:none;stroke-opacity:1"
             id="path926" /></g></g></g><g
       id="g928"
       transform="translate(141.2266,91.4941)"><path
         d="m 0,0 h -3.706 l -1,147.255 H 0 Z"
         style="fill:#868686;fill-opacity:1;fill-rule:nonzero;stroke:none"
         id="path930" /></g><g
       id="g932"
       transform="translate(141.2266,91.4941)"><path
         d="m 0,0 h -3.706 l -1,147.255 H 0 Z"
         style="fill:none;stroke:#1a2e35;stroke-width:1;stroke-linecap:round;stroke-linejoin:round;stroke-miterlimit:10;stroke-dasharray:none;stroke-opacity:1"
         id="path934" /></g><g
       id="g936"
       transform="translate(144.9326,91.4941)"><path
         d="M 0,0 H -3.706 V 147.255 H 1 Z"
         style="fill:#9a9a9a;fill-opacity:1;fill-rule:nonzero;stroke:none"
         id="path938" /></g><g
       id="g940"
       transform="translate(144.9326,91.4941)"><path
         d="M 0,0 H -3.706 V 147.255 H 1 Z"
         style="fill:none;stroke:#1a2e35;stroke-width:1;stroke-linecap:round;stroke-linejoin:round;stroke-miterlimit:10;stroke-dasharray:none;stroke-opacity:1"
         id="path942" /></g><path
       d="M 352.985,238.749 H 98.779 v 9.016 h 254.206 z"
       style="fill:#1a2e35;fill-opacity:1;fill-rule:nonzero;stroke:#1a2e35;stroke-width:1;stroke-linecap:round;stroke-linejoin:round;stroke-miterlimit:10;stroke-dasharray:none;stroke-opacity:1"
       id="path944" /><path
       d="m 406.112,238.749 h -56.919 v 9.016 h 56.919 z"
       style="fill:#868686;fill-opacity:1;fill-rule:nonzero;stroke:#1a2e35;stroke-width:1;stroke-linecap:round;stroke-linejoin:round;stroke-miterlimit:10;stroke-dasharray:none;stroke-opacity:1"
       id="path946" /><path
       d="M 364.521,223.885 H 111.798 v 14.864 h 252.723 z"
       style="fill:#5ae4a7;fill-opacity:1;fill-rule:nonzero;stroke:#1a2e35;stroke-width:1;stroke-linecap:butt;stroke-linejoin:miter;stroke-miterlimit:10;stroke-dasharray:none;stroke-opacity:1"
       id="path948" /><path
       d="m 364.521,223.885 h 29.428 v 14.864 h -29.428 z"
       style="fill:#5ae4a7;fill-opacity:1;fill-rule:nonzero;stroke:none"
       id="path950" /><g
       id="g952"><g
         id="g954"
         clip-path="url(#clipPath958)"><g
           id="g960"><g
             id="g962" /><g
             id="g972"><g
               clip-path="url(#clipPath966)"
               opacity="0.300003"
               id="g970"><path
                 d="m 364.521,223.885 h 29.428 v 14.864 h -29.428 z"
                 style="fill:#000000;fill-opacity:1;fill-rule:nonzero;stroke:none"
                 id="path968" /></g></g></g></g></g><path
       d="m 364.521,223.885 h 29.428 v 14.864 h -29.428 z"
       style="fill:none;stroke:#1a2e35;stroke-width:1;stroke-linecap:butt;stroke-linejoin:miter;stroke-miterlimit:10;stroke-dasharray:none;stroke-opacity:1"
       id="path974" /><g
       id="g976"
       transform="translate(364.5215,91.4941)"><path
         d="m 0,0 h -3.705 l -1,147.255 H 0 Z"
         style="fill:#868686;fill-opacity:1;fill-rule:nonzero;stroke:none"
         id="path978" /></g><g
       id="g980"
       transform="translate(364.5215,91.4941)"><path
         d="m 0,0 h -3.705 l -1,147.255 H 0 Z"
         style="fill:none;stroke:#1a2e35;stroke-width:1;stroke-linecap:round;stroke-linejoin:round;stroke-miterlimit:10;stroke-dasharray:none;stroke-opacity:1"
         id="path982" /></g><g
       id="g984"
       transform="translate(368.2275,91.4941)"><path
         d="M 0,0 H -3.706 V 147.255 H 1 Z"
         style="fill:#9a9a9a;fill-opacity:1;fill-rule:nonzero;stroke:none"
         id="path986" /></g><g
       id="g988"
       transform="translate(368.2275,91.4941)"><path
         d="M 0,0 H -3.706 V 147.255 H 1 Z"
         style="fill:none;stroke:#1a2e35;stroke-width:1;stroke-linecap:round;stroke-linejoin:round;stroke-miterlimit:10;stroke-dasharray:none;stroke-opacity:1"
         id="path990" /></g><g
       id="g992"
       transform="translate(111.7988,91.4941)"><path
         d="m 0,0 h -3.706 l -1,147.255 H 0 Z"
         style="fill:#868686;fill-opacity:1;fill-rule:nonzero;stroke:none"
         id="path994" /></g><g
       id="g996"
       transform="translate(111.7988,91.4941)"><path
         d="m 0,0 h -3.706 l -1,147.255 H 0 Z"
         style="fill:none;stroke:#1a2e35;stroke-width:1;stroke-linecap:round;stroke-linejoin:round;stroke-miterlimit:10;stroke-dasharray:none;stroke-opacity:1"
         id="path998" /></g><g
       id="g1000"
       transform="translate(115.5049,91.4941)"><path
         d="M 0,0 H -3.706 V 147.255 H 1 Z"
         style="fill:#9a9a9a;fill-opacity:1;fill-rule:nonzero;stroke:none"
         id="path1002" /></g><g
       id="g1004"
       transform="translate(115.5049,91.4941)"><path
         d="M 0,0 H -3.706 V 147.255 H 1 Z"
         style="fill:none;stroke:#1a2e35;stroke-width:1;stroke-linecap:round;stroke-linejoin:round;stroke-miterlimit:10;stroke-dasharray:none;stroke-opacity:1"
         id="path1006" /></g><g
       id="g1008"
       transform="translate(393.9492,91.4941)"><path
         d="m 0,0 h -3.705 l -1,147.255 H 0 Z"
         style="fill:#868686;fill-opacity:1;fill-rule:nonzero;stroke:none"
         id="path1010" /></g><g
       id="g1012"
       transform="translate(393.9492,91.4941)"><path
         d="m 0,0 h -3.705 l -1,147.255 H 0 Z"
         style="fill:none;stroke:#1a2e35;stroke-width:1;stroke-linecap:round;stroke-linejoin:round;stroke-miterlimit:10;stroke-dasharray:none;stroke-opacity:1"
         id="path1014" /></g><g
       id="g1016"
       transform="translate(397.6553,91.4941)"><path
         d="M 0,0 H -3.706 V 147.255 H 1 Z"
         style="fill:#9a9a9a;fill-opacity:1;fill-rule:nonzero;stroke:none"
         id="path1018" /></g><g
       id="g1020"
       transform="translate(397.6553,91.4941)"><path
         d="M 0,0 H -3.706 V 147.255 H 1 Z"
         style="fill:none;stroke:#1a2e35;stroke-width:1;stroke-linecap:round;stroke-linejoin:round;stroke-miterlimit:10;stroke-dasharray:none;stroke-opacity:1"
         id="path1022" /></g><g
       id="g1024"><g
         id="g1026"
         clip-path="url(#clipPath1030)"><g
           id="g1032"
           transform="translate(263.0518,248.7646)"><path
             d="m 0,0 h -29.793 c -0.609,0 -1.103,0.494 -1.103,1.104 v 2.459 l 32,-1 V 1.104 C 1.104,0.494 0.609,0 0,0"
             style="fill:#868686;fill-opacity:1;fill-rule:nonzero;stroke:none"
             id="path1034" /></g><g
           id="g1036"
           transform="translate(263.0518,248.7646)"><path
             d="m 0,0 h -29.793 c -0.609,0 -1.103,0.494 -1.103,1.104 v 2.459 l 32,-1 V 1.104 C 1.104,0.494 0.609,0 0,0 Z"
             style="fill:none;stroke:#1a2e35;stroke-width:1;stroke-linecap:round;stroke-linejoin:round;stroke-miterlimit:10;stroke-dasharray:none;stroke-opacity:1"
             id="path1038" /></g><g
           id="g1040"
           transform="translate(228.8325,248.7646)"><path
             d="m 0,0 h -59.894 c -0.96,0 -1.896,0.711 -2.188,1.662 l -12.856,41.74 c -0.353,1.145 0.359,2.161 1.513,2.161 h 59.895 c 0.959,0 1.895,-0.711 2.188,-1.662 L 1.514,2.161 C 1.867,1.017 1.155,0 0,0"
             style="fill:#9a9a9a;fill-opacity:1;fill-rule:nonzero;stroke:none"
             id="path1042" /></g><g
           id="g1044"
           transform="translate(228.8325,248.7646)"><path
             d="m 0,0 h -59.894 c -0.96,0 -1.896,0.711 -2.188,1.662 l -12.856,41.74 c -0.353,1.145 0.359,2.161 1.513,2.161 h 59.895 c 0.959,0 1.895,-0.711 2.188,-1.662 L 1.514,2.161 C 1.867,1.017 1.155,0 0,0 Z"
             style="fill:none;stroke:#1a2e35;stroke-width:1;stroke-linecap:round;stroke-linejoin:round;stroke-miterlimit:10;stroke-dasharray:none;stroke-opacity:1"
             id="path1046" /></g><g
           id="g1048"
           transform="translate(233.0376,250.9258)"><path
             d="m 0,0 -12.856,41.74 c -0.293,0.951 -1.229,1.662 -2.188,1.662 h -2.691 c 0.959,0 1.895,-0.711 2.188,-1.662 L -2.691,0 c 0.353,-1.145 -0.359,-2.161 -1.514,-2.161 h 2.691 C -0.359,-2.161 0.353,-1.145 0,0"
             style="fill:#868686;fill-opacity:1;fill-rule:nonzero;stroke:none"
             id="path1050" /></g><g
           id="g1052"
           transform="translate(233.0376,250.9258)"><path
             d="m 0,0 -12.856,41.74 c -0.293,0.951 -1.229,1.662 -2.188,1.662 h -2.691 c 0.959,0 1.895,-0.711 2.188,-1.662 L -2.691,0 c 0.353,-1.145 -0.359,-2.161 -1.514,-2.161 h 2.691 C -0.359,-2.161 0.353,-1.145 0,0 Z"
             style="fill:none;stroke:#1a2e35;stroke-width:1;stroke-linecap:round;stroke-linejoin:round;stroke-miterlimit:10;stroke-dasharray:none;stroke-opacity:1"
             id="path1054" /></g><g
           id="g1056"
           transform="translate(195.8252,271.5464)"><path
             d="m 0,0 c 0.251,-2.046 -1.204,-3.705 -3.25,-3.705 -2.046,0 -3.909,1.659 -4.16,3.705 -0.251,2.046 1.204,3.705 3.25,3.705 C -2.114,3.705 -0.251,2.046 0,0"
             style="fill:#ffffff;fill-opacity:1;fill-rule:nonzero;stroke:none"
             id="path1058" /></g><g
           id="g1060"
           transform="translate(195.8252,271.5464)"><path
             d="m 0,0 c 0.251,-2.046 -1.204,-3.705 -3.25,-3.705 -2.046,0 -3.909,1.659 -4.16,3.705 -0.251,2.046 1.204,3.705 3.25,3.705 C -2.114,3.705 -0.251,2.046 0,0 Z"
             style="fill:none;stroke:#1a2e35;stroke-width:1;stroke-linecap:round;stroke-linejoin:round;stroke-miterlimit:10;stroke-dasharray:none;stroke-opacity:1"
             id="path1062" /></g></g></g></g></svg>
